<svg xmlns="http://www.w3.org/2000/svg" xmlns:xlink="http://www.w3.org/1999/xlink" width="500" zoomAndPan="magnify" viewBox="0 0 375 374.999991" height="500" preserveAspectRatio="xMidYMid meet" version="1.0"><defs><g/><clipPath id="89df836c94"><path d="M 15.441406 168.5625 L 121.542969 168.5625 L 121.542969 195.476562 L 15.441406 195.476562 Z M 15.441406 168.5625 " clip-rule="nonzero"/></clipPath><clipPath id="0b87920f13"><path d="M 54.476562 120.476562 L 84.917969 120.476562 L 84.917969 250.683594 L 54.476562 250.683594 Z M 54.476562 120.476562 " clip-rule="nonzero"/></clipPath><clipPath id="4fd990f6ab"><path d="M 84.917969 222.5 C 84.917969 238.03125 78.101562 250.625 69.695312 250.625 C 61.289062 250.625 54.476562 238.03125 54.476562 222.5 L 54.476562 148.601562 C 54.476562 133.070312 61.289062 120.476562 69.695312 120.476562 C 78.101562 120.476562 84.917969 133.070312 84.917969 148.601562 Z M 84.917969 222.5 " clip-rule="nonzero"/></clipPath><clipPath id="c87c82cee0"><path d="M 54.484375 168.5625 L 84.925781 168.5625 L 84.925781 195.476562 L 54.484375 195.476562 Z M 54.484375 168.5625 " clip-rule="nonzero"/></clipPath><clipPath id="bb33ae6c20"><path d="M 54.484375 222.476562 L 68.082031 222.476562 L 68.082031 250.621094 L 54.484375 250.621094 Z M 54.484375 222.476562 " clip-rule="nonzero"/></clipPath><clipPath id="0c337df295"><path d="M 68.082031 120.476562 L 84.328125 120.476562 L 84.328125 148.621094 L 68.082031 148.621094 Z M 68.082031 120.476562 " clip-rule="nonzero"/></clipPath><clipPath id="23b1fbefea"><path d="M 115.21875 120.476562 L 143.753906 120.476562 L 143.753906 195.476562 L 115.21875 195.476562 Z M 115.21875 120.476562 " clip-rule="nonzero"/></clipPath></defs><g clip-path="url(#89df836c94)"><path fill="#2d78bb" d="M 15.441406 168.5625 L 121.511719 168.5625 L 121.511719 195.476562 L 15.441406 195.476562 Z M 15.441406 168.5625 " fill-opacity="1" fill-rule="nonzero"/></g><g clip-path="url(#0b87920f13)"><g clip-path="url(#4fd990f6ab)"><path fill="#2d78bb" d="M 84.917969 120.476562 L 84.917969 250.566406 L 54.476562 250.566406 L 54.476562 120.476562 Z M 84.917969 120.476562 " fill-opacity="1" fill-rule="nonzero"/></g></g><g clip-path="url(#c87c82cee0)"><path fill="#259da5" d="M 54.484375 168.5625 L 84.972656 168.5625 L 84.972656 195.476562 L 54.484375 195.476562 Z M 54.484375 168.5625 " fill-opacity="1" fill-rule="nonzero"/></g><g clip-path="url(#bb33ae6c20)"><path fill="#2d78bb" d="M 54.484375 222.476562 L 68.082031 222.476562 L 68.082031 250.625 L 54.484375 250.625 Z M 54.484375 222.476562 " fill-opacity="1" fill-rule="nonzero"/></g><g clip-path="url(#0c337df295)"><path fill="#2d78bb" d="M 68.082031 120.476562 L 84.328125 120.476562 L 84.328125 148.648438 L 68.082031 148.648438 Z M 68.082031 120.476562 " fill-opacity="1" fill-rule="nonzero"/></g><g clip-path="url(#23b1fbefea)"><path fill="#2d78bb" d="M 115.21875 120.476562 L 143.753906 120.476562 L 143.753906 195.492188 L 115.21875 195.492188 Z M 115.21875 120.476562 " fill-opacity="1" fill-rule="nonzero"/></g><g fill="#1e9aa2" fill-opacity="1"><g transform="translate(196.527377, 257.604012)"><g><path d="M 18.953125 -25.640625 L 18.953125 -20.625 L 8.515625 -20.625 L 8.515625 -15.234375 L 16.328125 -15.234375 L 16.328125 -10.375 L 8.515625 -10.375 L 8.515625 0 L 2.265625 0 L 2.265625 -25.640625 Z M 18.953125 -25.640625 "/></g></g></g><g fill="#1e9aa2" fill-opacity="1"><g transform="translate(216.500343, 257.604012)"><g><path d="M 28.265625 -20.59375 C 30.796875 -20.59375 32.804688 -19.828125 34.296875 -18.296875 C 35.796875 -16.765625 36.546875 -14.632812 36.546875 -11.90625 L 36.546875 0 L 30.34375 0 L 30.34375 -11.0625 C 30.34375 -12.375 29.992188 -13.390625 29.296875 -14.109375 C 28.609375 -14.828125 27.65625 -15.1875 26.4375 -15.1875 C 25.21875 -15.1875 24.257812 -14.828125 23.5625 -14.109375 C 22.875 -13.390625 22.53125 -12.375 22.53125 -11.0625 L 22.53125 0 L 16.328125 0 L 16.328125 -11.0625 C 16.328125 -12.375 15.976562 -13.390625 15.28125 -14.109375 C 14.582031 -14.828125 13.628906 -15.1875 12.421875 -15.1875 C 11.203125 -15.1875 10.242188 -14.828125 9.546875 -14.109375 C 8.859375 -13.390625 8.515625 -12.375 8.515625 -11.0625 L 8.515625 0 L 2.265625 0 L 2.265625 -20.375 L 8.515625 -20.375 L 8.515625 -17.8125 C 9.140625 -18.664062 9.960938 -19.34375 10.984375 -19.84375 C 12.015625 -20.34375 13.171875 -20.59375 14.453125 -20.59375 C 15.992188 -20.59375 17.363281 -20.265625 18.5625 -19.609375 C 19.769531 -18.953125 20.710938 -18.015625 21.390625 -16.796875 C 22.097656 -17.921875 23.0625 -18.832031 24.28125 -19.53125 C 25.5 -20.238281 26.828125 -20.59375 28.265625 -20.59375 Z M 28.265625 -20.59375 "/></g></g></g><g fill="#1e9aa2" fill-opacity="1"><g transform="translate(255.168296, 257.604012)"><g><path d="M 22.390625 -20.375 L 22.390625 0 L 16.140625 0 L 16.140625 -2.78125 C 15.503906 -1.875 14.644531 -1.144531 13.5625 -0.59375 C 12.476562 -0.0507812 11.28125 0.21875 9.96875 0.21875 C 8.40625 0.21875 7.023438 -0.125 5.828125 -0.8125 C 4.640625 -1.507812 3.71875 -2.515625 3.0625 -3.828125 C 2.40625 -5.148438 2.078125 -6.695312 2.078125 -8.46875 L 2.078125 -20.375 L 8.296875 -20.375 L 8.296875 -9.3125 C 8.296875 -7.945312 8.644531 -6.882812 9.34375 -6.125 C 10.050781 -5.375 11.003906 -5 12.203125 -5 C 13.410156 -5 14.367188 -5.375 15.078125 -6.125 C 15.785156 -6.882812 16.140625 -7.945312 16.140625 -9.3125 L 16.140625 -20.375 Z M 22.390625 -20.375 "/></g></g></g><g fill="#1e9aa2" fill-opacity="1"><g transform="translate(279.778491, 257.604012)"><g><path d="M 10.546875 0.296875 C 8.773438 0.296875 7.191406 -0.00390625 5.796875 -0.609375 C 4.410156 -1.222656 3.316406 -2.054688 2.515625 -3.109375 C 1.710938 -4.171875 1.265625 -5.363281 1.171875 -6.6875 L 7.34375 -6.6875 C 7.414062 -5.976562 7.742188 -5.40625 8.328125 -4.96875 C 8.910156 -4.53125 9.628906 -4.3125 10.484375 -4.3125 C 11.265625 -4.3125 11.863281 -4.460938 12.28125 -4.765625 C 12.707031 -5.066406 12.921875 -5.460938 12.921875 -5.953125 C 12.921875 -6.535156 12.613281 -6.96875 12 -7.25 C 11.394531 -7.53125 10.414062 -7.835938 9.0625 -8.171875 C 7.59375 -8.515625 6.367188 -8.875 5.390625 -9.25 C 4.421875 -9.632812 3.582031 -10.234375 2.875 -11.046875 C 2.175781 -11.859375 1.828125 -12.957031 1.828125 -14.34375 C 1.828125 -15.519531 2.148438 -16.585938 2.796875 -17.546875 C 3.441406 -18.503906 4.390625 -19.265625 5.640625 -19.828125 C 6.890625 -20.390625 8.378906 -20.671875 10.109375 -20.671875 C 12.671875 -20.671875 14.6875 -20.035156 16.15625 -18.765625 C 17.632812 -17.503906 18.484375 -15.828125 18.703125 -13.734375 L 12.921875 -13.734375 C 12.828125 -14.429688 12.515625 -14.988281 11.984375 -15.40625 C 11.460938 -15.820312 10.78125 -16.03125 9.9375 -16.03125 C 9.207031 -16.03125 8.644531 -15.890625 8.25 -15.609375 C 7.863281 -15.328125 7.671875 -14.941406 7.671875 -14.453125 C 7.671875 -13.867188 7.976562 -13.429688 8.59375 -13.140625 C 9.21875 -12.847656 10.1875 -12.554688 11.5 -12.265625 C 13.007812 -11.878906 14.238281 -11.492188 15.1875 -11.109375 C 16.132812 -10.734375 16.96875 -10.125 17.6875 -9.28125 C 18.40625 -8.445312 18.78125 -7.328125 18.8125 -5.921875 C 18.8125 -4.722656 18.472656 -3.65625 17.796875 -2.71875 C 17.128906 -1.78125 16.164062 -1.039062 14.90625 -0.5 C 13.65625 0.03125 12.203125 0.296875 10.546875 0.296875 Z M 10.546875 0.296875 "/></g></g></g><g fill="#1e9aa2" fill-opacity="1"><g transform="translate(300.153107, 257.604012)"><g><path d="M 8.515625 -17.484375 C 9.117188 -18.441406 9.957031 -19.210938 11.03125 -19.796875 C 12.101562 -20.378906 13.351562 -20.671875 14.78125 -20.671875 C 16.46875 -20.671875 17.988281 -20.242188 19.34375 -19.390625 C 20.707031 -18.535156 21.785156 -17.316406 22.578125 -15.734375 C 23.367188 -14.148438 23.765625 -12.3125 23.765625 -10.21875 C 23.765625 -8.125 23.367188 -6.28125 22.578125 -4.6875 C 21.785156 -3.09375 20.707031 -1.863281 19.34375 -1 C 17.988281 -0.132812 16.46875 0.296875 14.78125 0.296875 C 13.375 0.296875 12.128906 0.00390625 11.046875 -0.578125 C 9.960938 -1.160156 9.117188 -1.914062 8.515625 -2.84375 L 8.515625 9.71875 L 2.265625 9.71875 L 2.265625 -20.375 L 8.515625 -20.375 Z M 17.421875 -10.21875 C 17.421875 -11.78125 16.988281 -13.003906 16.125 -13.890625 C 15.257812 -14.785156 14.191406 -15.234375 12.921875 -15.234375 C 11.679688 -15.234375 10.628906 -14.78125 9.765625 -13.875 C 8.898438 -12.976562 8.46875 -11.75 8.46875 -10.1875 C 8.46875 -8.625 8.898438 -7.394531 9.765625 -6.5 C 10.628906 -5.601562 11.679688 -5.15625 12.921875 -5.15625 C 14.160156 -5.15625 15.21875 -5.609375 16.09375 -6.515625 C 16.976562 -7.429688 17.421875 -8.664062 17.421875 -10.21875 Z M 17.421875 -10.21875 "/></g></g></g><g fill="#2d78bb" fill-opacity="1"><g transform="translate(246.931797, 204.176731)"><g><path d="M 11.75 0 L 9.125 0 L 9.125 -5.375 L 4.203125 -5.375 L 4.203125 0 L 1.5625 0 L 1.5625 -12.4375 L 4.203125 -12.4375 L 4.203125 -7.5625 L 9.125 -7.5625 L 9.125 -12.4375 L 11.75 -12.4375 Z M 11.75 0 "/></g></g></g><g fill="#2d78bb" fill-opacity="1"><g transform="translate(260.265283, 204.176731)"><g><path d="M 3.421875 -4.765625 C 3.421875 -3.828125 3.578125 -3.113281 3.890625 -2.625 C 4.203125 -2.144531 4.707031 -1.90625 5.40625 -1.90625 C 6.09375 -1.90625 6.585938 -2.144531 6.890625 -2.625 C 7.191406 -3.113281 7.34375 -3.828125 7.34375 -4.765625 C 7.34375 -5.710938 7.191406 -6.421875 6.890625 -6.890625 C 6.585938 -7.359375 6.085938 -7.59375 5.390625 -7.59375 C 4.691406 -7.59375 4.1875 -7.359375 3.875 -6.890625 C 3.570312 -6.421875 3.421875 -5.710938 3.421875 -4.765625 Z M 10 -4.765625 C 10 -3.222656 9.585938 -2.015625 8.765625 -1.140625 C 7.953125 -0.265625 6.820312 0.171875 5.375 0.171875 C 4.457031 0.171875 3.648438 -0.0234375 2.953125 -0.421875 C 2.253906 -0.828125 1.71875 -1.40625 1.34375 -2.15625 C 0.96875 -2.90625 0.78125 -3.773438 0.78125 -4.765625 C 0.78125 -6.328125 1.1875 -7.535156 2 -8.390625 C 2.8125 -9.253906 3.953125 -9.6875 5.421875 -9.6875 C 6.328125 -9.6875 7.128906 -9.488281 7.828125 -9.09375 C 8.523438 -8.695312 9.0625 -8.125 9.4375 -7.375 C 9.8125 -6.632812 10 -5.765625 10 -4.765625 Z M 10 -4.765625 "/></g></g></g><g fill="#2d78bb" fill-opacity="1"><g transform="translate(271.054598, 204.176731)"><g><path d="M 8 -2.828125 C 8 -1.847656 7.660156 -1.101562 6.984375 -0.59375 C 6.304688 -0.0820312 5.289062 0.171875 3.9375 0.171875 C 3.25 0.171875 2.660156 0.125 2.171875 0.03125 C 1.679688 -0.0625 1.222656 -0.195312 0.796875 -0.375 L 0.796875 -2.53125 C 1.273438 -2.300781 1.816406 -2.109375 2.421875 -1.953125 C 3.023438 -1.804688 3.5625 -1.734375 4.03125 -1.734375 C 4.96875 -1.734375 5.4375 -2.003906 5.4375 -2.546875 C 5.4375 -2.742188 5.375 -2.90625 5.25 -3.03125 C 5.125 -3.164062 4.90625 -3.3125 4.59375 -3.46875 C 4.289062 -3.632812 3.882812 -3.828125 3.375 -4.046875 C 2.644531 -4.347656 2.109375 -4.628906 1.765625 -4.890625 C 1.421875 -5.148438 1.171875 -5.445312 1.015625 -5.78125 C 0.859375 -6.125 0.78125 -6.539062 0.78125 -7.03125 C 0.78125 -7.875 1.109375 -8.523438 1.765625 -8.984375 C 2.421875 -9.453125 3.347656 -9.6875 4.546875 -9.6875 C 5.691406 -9.6875 6.804688 -9.4375 7.890625 -8.9375 L 7.109375 -7.0625 C 6.628906 -7.269531 6.179688 -7.4375 5.765625 -7.5625 C 5.359375 -7.695312 4.941406 -7.765625 4.515625 -7.765625 C 3.742188 -7.765625 3.359375 -7.554688 3.359375 -7.140625 C 3.359375 -6.910156 3.476562 -6.707031 3.71875 -6.53125 C 3.96875 -6.363281 4.507812 -6.113281 5.34375 -5.78125 C 6.09375 -5.476562 6.640625 -5.195312 6.984375 -4.9375 C 7.328125 -4.675781 7.582031 -4.375 7.75 -4.03125 C 7.914062 -3.695312 8 -3.296875 8 -2.828125 Z M 8 -2.828125 "/></g></g></g><g fill="#2d78bb" fill-opacity="1"><g transform="translate(279.716682, 204.176731)"><g><path d="M 6.578125 0.171875 C 5.460938 0.171875 4.585938 -0.234375 3.953125 -1.046875 L 3.8125 -1.046875 C 3.90625 -0.253906 3.953125 0.203125 3.953125 0.328125 L 3.953125 4.1875 L 1.359375 4.1875 L 1.359375 -9.515625 L 3.46875 -9.515625 L 3.84375 -8.28125 L 3.953125 -8.28125 C 4.554688 -9.21875 5.457031 -9.6875 6.65625 -9.6875 C 7.78125 -9.6875 8.65625 -9.253906 9.28125 -8.390625 C 9.914062 -7.523438 10.234375 -6.316406 10.234375 -4.765625 C 10.234375 -3.753906 10.082031 -2.875 9.78125 -2.125 C 9.488281 -1.375 9.066406 -0.800781 8.515625 -0.40625 C 7.972656 -0.0195312 7.328125 0.171875 6.578125 0.171875 Z M 5.8125 -7.609375 C 5.175781 -7.609375 4.707031 -7.410156 4.40625 -7.015625 C 4.113281 -6.628906 3.960938 -5.976562 3.953125 -5.0625 L 3.953125 -4.796875 C 3.953125 -3.773438 4.101562 -3.039062 4.40625 -2.59375 C 4.707031 -2.15625 5.191406 -1.9375 5.859375 -1.9375 C 7.015625 -1.9375 7.59375 -2.894531 7.59375 -4.8125 C 7.59375 -5.738281 7.445312 -6.4375 7.15625 -6.90625 C 6.875 -7.375 6.425781 -7.609375 5.8125 -7.609375 Z M 5.8125 -7.609375 "/></g></g></g><g fill="#2d78bb" fill-opacity="1"><g transform="translate(290.744246, 204.176731)"><g><path d="M 1.25 -11.96875 C 1.25 -12.8125 1.71875 -13.234375 2.65625 -13.234375 C 3.601562 -13.234375 4.078125 -12.8125 4.078125 -11.96875 C 4.078125 -11.5625 3.957031 -11.242188 3.71875 -11.015625 C 3.488281 -10.796875 3.132812 -10.6875 2.65625 -10.6875 C 1.71875 -10.6875 1.25 -11.113281 1.25 -11.96875 Z M 3.953125 0 L 1.359375 0 L 1.359375 -9.515625 L 3.953125 -9.515625 Z M 3.953125 0 "/></g></g></g><g fill="#2d78bb" fill-opacity="1"><g transform="translate(296.062327, 204.176731)"><g><path d="M 5.375 -1.890625 C 5.820312 -1.890625 6.363281 -1.988281 7 -2.1875 L 7 -0.265625 C 6.351562 0.0234375 5.5625 0.171875 4.625 0.171875 C 3.582031 0.171875 2.820312 -0.0859375 2.34375 -0.609375 C 1.875 -1.140625 1.640625 -1.929688 1.640625 -2.984375 L 1.640625 -7.5625 L 0.40625 -7.5625 L 0.40625 -8.65625 L 1.828125 -9.53125 L 2.578125 -11.53125 L 4.234375 -11.53125 L 4.234375 -9.515625 L 6.90625 -9.515625 L 6.90625 -7.5625 L 4.234375 -7.5625 L 4.234375 -2.984375 C 4.234375 -2.609375 4.335938 -2.332031 4.546875 -2.15625 C 4.753906 -1.976562 5.03125 -1.890625 5.375 -1.890625 Z M 5.375 -1.890625 "/></g></g></g><g fill="#2d78bb" fill-opacity="1"><g transform="translate(303.626764, 204.176731)"><g><path d="M 7.40625 0 L 6.90625 -1.296875 L 6.828125 -1.296875 C 6.390625 -0.742188 5.941406 -0.359375 5.484375 -0.140625 C 5.023438 0.0664062 4.421875 0.171875 3.671875 0.171875 C 2.765625 0.171875 2.046875 -0.0859375 1.515625 -0.609375 C 0.992188 -1.128906 0.734375 -1.875 0.734375 -2.84375 C 0.734375 -3.851562 1.082031 -4.597656 1.78125 -5.078125 C 2.488281 -5.554688 3.554688 -5.820312 4.984375 -5.875 L 6.640625 -5.921875 L 6.640625 -6.34375 C 6.640625 -7.300781 6.144531 -7.78125 5.15625 -7.78125 C 4.394531 -7.78125 3.5 -7.550781 2.46875 -7.09375 L 1.609375 -8.84375 C 2.710938 -9.414062 3.925781 -9.703125 5.25 -9.703125 C 6.53125 -9.703125 7.507812 -9.421875 8.1875 -8.859375 C 8.875 -8.304688 9.21875 -7.46875 9.21875 -6.34375 L 9.21875 0 Z M 6.640625 -4.40625 L 5.625 -4.375 C 4.875 -4.351562 4.3125 -4.21875 3.9375 -3.96875 C 3.570312 -3.71875 3.390625 -3.335938 3.390625 -2.828125 C 3.390625 -2.097656 3.8125 -1.734375 4.65625 -1.734375 C 5.257812 -1.734375 5.738281 -1.90625 6.09375 -2.25 C 6.457031 -2.59375 6.640625 -3.050781 6.640625 -3.625 Z M 6.640625 -4.40625 "/></g></g></g><g fill="#2d78bb" fill-opacity="1"><g transform="translate(314.152307, 204.176731)"><g><path d="M 3.953125 0 L 1.359375 0 L 1.359375 -13.234375 L 3.953125 -13.234375 Z M 3.953125 0 "/></g></g></g><g fill="#2d78bb" fill-opacity="1"><g transform="translate(218.076783, 228.538236)"><g><path d="M 4.375 0.171875 C 3.257812 0.171875 2.378906 -0.257812 1.734375 -1.125 C 1.097656 -2 0.78125 -3.203125 0.78125 -4.734375 C 0.78125 -6.296875 1.101562 -7.507812 1.75 -8.375 C 2.40625 -9.25 3.300781 -9.6875 4.4375 -9.6875 C 5.632812 -9.6875 6.550781 -9.222656 7.1875 -8.296875 L 7.265625 -8.296875 C 7.128906 -9.003906 7.0625 -9.632812 7.0625 -10.1875 L 7.0625 -13.234375 L 9.671875 -13.234375 L 9.671875 0 L 7.6875 0 L 7.1875 -1.234375 L 7.0625 -1.234375 C 6.476562 -0.296875 5.582031 0.171875 4.375 0.171875 Z M 5.28125 -1.890625 C 5.945312 -1.890625 6.429688 -2.082031 6.734375 -2.46875 C 7.046875 -2.851562 7.21875 -3.507812 7.25 -4.4375 L 7.25 -4.71875 C 7.25 -5.738281 7.085938 -6.46875 6.765625 -6.90625 C 6.453125 -7.351562 5.941406 -7.578125 5.234375 -7.578125 C 4.660156 -7.578125 4.210938 -7.332031 3.890625 -6.84375 C 3.566406 -6.351562 3.40625 -5.640625 3.40625 -4.703125 C 3.40625 -3.765625 3.566406 -3.0625 3.890625 -2.59375 C 4.210938 -2.125 4.675781 -1.890625 5.28125 -1.890625 Z M 5.28125 -1.890625 "/></g></g></g><g fill="#2d78bb" fill-opacity="1"><g transform="translate(229.104347, 228.538236)"><g><path d="M 7.40625 0 L 6.90625 -1.296875 L 6.828125 -1.296875 C 6.390625 -0.742188 5.941406 -0.359375 5.484375 -0.140625 C 5.023438 0.0664062 4.421875 0.171875 3.671875 0.171875 C 2.765625 0.171875 2.046875 -0.0859375 1.515625 -0.609375 C 0.992188 -1.128906 0.734375 -1.875 0.734375 -2.84375 C 0.734375 -3.851562 1.082031 -4.597656 1.78125 -5.078125 C 2.488281 -5.554688 3.554688 -5.820312 4.984375 -5.875 L 6.640625 -5.921875 L 6.640625 -6.34375 C 6.640625 -7.300781 6.144531 -7.78125 5.15625 -7.78125 C 4.394531 -7.78125 3.5 -7.550781 2.46875 -7.09375 L 1.609375 -8.84375 C 2.710938 -9.414062 3.925781 -9.703125 5.25 -9.703125 C 6.53125 -9.703125 7.507812 -9.421875 8.1875 -8.859375 C 8.875 -8.304688 9.21875 -7.46875 9.21875 -6.34375 L 9.21875 0 Z M 6.640625 -4.40625 L 5.625 -4.375 C 4.875 -4.351562 4.3125 -4.21875 3.9375 -3.96875 C 3.570312 -3.71875 3.390625 -3.335938 3.390625 -2.828125 C 3.390625 -2.097656 3.8125 -1.734375 4.65625 -1.734375 C 5.257812 -1.734375 5.738281 -1.90625 6.09375 -2.25 C 6.457031 -2.59375 6.640625 -3.050781 6.640625 -3.625 Z M 6.640625 -4.40625 "/></g></g></g><g fill="#2d78bb" fill-opacity="1"><g transform="translate(239.62989, 228.538236)"><g><path d="M 8 -2.828125 C 8 -1.847656 7.660156 -1.101562 6.984375 -0.59375 C 6.304688 -0.0820312 5.289062 0.171875 3.9375 0.171875 C 3.25 0.171875 2.660156 0.125 2.171875 0.03125 C 1.679688 -0.0625 1.222656 -0.195312 0.796875 -0.375 L 0.796875 -2.53125 C 1.273438 -2.300781 1.816406 -2.109375 2.421875 -1.953125 C 3.023438 -1.804688 3.5625 -1.734375 4.03125 -1.734375 C 4.96875 -1.734375 5.4375 -2.003906 5.4375 -2.546875 C 5.4375 -2.742188 5.375 -2.90625 5.25 -3.03125 C 5.125 -3.164062 4.90625 -3.3125 4.59375 -3.46875 C 4.289062 -3.632812 3.882812 -3.828125 3.375 -4.046875 C 2.644531 -4.347656 2.109375 -4.628906 1.765625 -4.890625 C 1.421875 -5.148438 1.171875 -5.445312 1.015625 -5.78125 C 0.859375 -6.125 0.78125 -6.539062 0.78125 -7.03125 C 0.78125 -7.875 1.109375 -8.523438 1.765625 -8.984375 C 2.421875 -9.453125 3.347656 -9.6875 4.546875 -9.6875 C 5.691406 -9.6875 6.804688 -9.4375 7.890625 -8.9375 L 7.109375 -7.0625 C 6.628906 -7.269531 6.179688 -7.4375 5.765625 -7.5625 C 5.359375 -7.695312 4.941406 -7.765625 4.515625 -7.765625 C 3.742188 -7.765625 3.359375 -7.554688 3.359375 -7.140625 C 3.359375 -6.910156 3.476562 -6.707031 3.71875 -6.53125 C 3.96875 -6.363281 4.507812 -6.113281 5.34375 -5.78125 C 6.09375 -5.476562 6.640625 -5.195312 6.984375 -4.9375 C 7.328125 -4.675781 7.582031 -4.375 7.75 -4.03125 C 7.914062 -3.695312 8 -3.296875 8 -2.828125 Z M 8 -2.828125 "/></g></g></g><g fill="#2d78bb" fill-opacity="1"><g transform="translate(248.291973, 228.538236)"><g/></g></g><g fill="#2d78bb" fill-opacity="1"><g transform="translate(252.81872, 228.538236)"><g><path d="M 6.84375 -10.421875 C 5.851562 -10.421875 5.082031 -10.046875 4.53125 -9.296875 C 3.988281 -8.554688 3.71875 -7.519531 3.71875 -6.1875 C 3.71875 -3.414062 4.757812 -2.03125 6.84375 -2.03125 C 7.71875 -2.03125 8.773438 -2.242188 10.015625 -2.671875 L 10.015625 -0.46875 C 8.992188 -0.0390625 7.851562 0.171875 6.59375 0.171875 C 4.789062 0.171875 3.410156 -0.375 2.453125 -1.46875 C 1.492188 -2.570312 1.015625 -4.148438 1.015625 -6.203125 C 1.015625 -7.492188 1.25 -8.625 1.71875 -9.59375 C 2.1875 -10.570312 2.859375 -11.316406 3.734375 -11.828125 C 4.617188 -12.347656 5.65625 -12.609375 6.84375 -12.609375 C 8.050781 -12.609375 9.265625 -12.316406 10.484375 -11.734375 L 9.640625 -9.59375 C 9.171875 -9.8125 8.703125 -10.003906 8.234375 -10.171875 C 7.765625 -10.335938 7.300781 -10.421875 6.84375 -10.421875 Z M 6.84375 -10.421875 "/></g></g></g><g fill="#2d78bb" fill-opacity="1"><g transform="translate(263.922869, 228.538236)"><g><path d="M 3.953125 0 L 1.359375 0 L 1.359375 -13.234375 L 3.953125 -13.234375 Z M 3.953125 0 "/></g></g></g><g fill="#2d78bb" fill-opacity="1"><g transform="translate(269.240951, 228.538236)"><g><path d="M 3.953125 0 L 1.359375 0 L 1.359375 -9.515625 L 3.953125 -9.515625 Z M 1.234375 -10.5625 L 1.234375 -10.78125 C 2.203125 -11.914062 2.867188 -12.769531 3.234375 -13.34375 L 6.140625 -13.34375 L 6.140625 -13.171875 C 5.847656 -12.867188 5.34375 -12.425781 4.625 -11.84375 C 3.914062 -11.269531 3.359375 -10.84375 2.953125 -10.5625 Z M 1.234375 -10.5625 "/></g></g></g><g fill="#2d78bb" fill-opacity="1"><g transform="translate(274.559032, 228.538236)"><g><path d="M 10.140625 0 L 7.546875 0 L 7.546875 -5.5625 C 7.546875 -6.238281 7.421875 -6.75 7.171875 -7.09375 C 6.929688 -7.4375 6.546875 -7.609375 6.015625 -7.609375 C 5.285156 -7.609375 4.757812 -7.363281 4.4375 -6.875 C 4.113281 -6.394531 3.953125 -5.59375 3.953125 -4.46875 L 3.953125 0 L 1.359375 0 L 1.359375 -9.515625 L 3.34375 -9.515625 L 3.6875 -8.296875 L 3.84375 -8.296875 C 4.125 -8.753906 4.519531 -9.097656 5.03125 -9.328125 C 5.539062 -9.566406 6.117188 -9.6875 6.765625 -9.6875 C 7.867188 -9.6875 8.707031 -9.382812 9.28125 -8.78125 C 9.851562 -8.1875 10.140625 -7.328125 10.140625 -6.203125 Z M 10.140625 0 "/></g></g></g><g fill="#2d78bb" fill-opacity="1"><g transform="translate(286.012043, 228.538236)"><g><path d="M 1.25 -11.96875 C 1.25 -12.8125 1.71875 -13.234375 2.65625 -13.234375 C 3.601562 -13.234375 4.078125 -12.8125 4.078125 -11.96875 C 4.078125 -11.5625 3.957031 -11.242188 3.71875 -11.015625 C 3.488281 -10.796875 3.132812 -10.6875 2.65625 -10.6875 C 1.71875 -10.6875 1.25 -11.113281 1.25 -11.96875 Z M 3.953125 0 L 1.359375 0 L 1.359375 -9.515625 L 3.953125 -9.515625 Z M 3.953125 0 "/></g></g></g><g fill="#2d78bb" fill-opacity="1"><g transform="translate(291.330124, 228.538236)"><g><path d="M 5.21875 0.171875 C 2.257812 0.171875 0.78125 -1.453125 0.78125 -4.703125 C 0.78125 -6.316406 1.179688 -7.550781 1.984375 -8.40625 C 2.796875 -9.257812 3.953125 -9.6875 5.453125 -9.6875 C 6.554688 -9.6875 7.539062 -9.472656 8.40625 -9.046875 L 7.640625 -7.03125 C 7.234375 -7.195312 6.851562 -7.332031 6.5 -7.4375 C 6.15625 -7.539062 5.804688 -7.59375 5.453125 -7.59375 C 4.097656 -7.59375 3.421875 -6.632812 3.421875 -4.71875 C 3.421875 -2.863281 4.097656 -1.9375 5.453125 -1.9375 C 5.953125 -1.9375 6.414062 -2 6.84375 -2.125 C 7.269531 -2.257812 7.691406 -2.46875 8.109375 -2.75 L 8.109375 -0.53125 C 7.691406 -0.269531 7.269531 -0.0859375 6.84375 0.015625 C 6.414062 0.117188 5.875 0.171875 5.21875 0.171875 Z M 5.21875 0.171875 "/></g></g></g><g fill="#2d78bb" fill-opacity="1"><g transform="translate(300.290024, 228.538236)"><g><path d="M 7.40625 0 L 6.90625 -1.296875 L 6.828125 -1.296875 C 6.390625 -0.742188 5.941406 -0.359375 5.484375 -0.140625 C 5.023438 0.0664062 4.421875 0.171875 3.671875 0.171875 C 2.765625 0.171875 2.046875 -0.0859375 1.515625 -0.609375 C 0.992188 -1.128906 0.734375 -1.875 0.734375 -2.84375 C 0.734375 -3.851562 1.082031 -4.597656 1.78125 -5.078125 C 2.488281 -5.554688 3.554688 -5.820312 4.984375 -5.875 L 6.640625 -5.921875 L 6.640625 -6.34375 C 6.640625 -7.300781 6.144531 -7.78125 5.15625 -7.78125 C 4.394531 -7.78125 3.5 -7.550781 2.46875 -7.09375 L 1.609375 -8.84375 C 2.710938 -9.414062 3.925781 -9.703125 5.25 -9.703125 C 6.53125 -9.703125 7.507812 -9.421875 8.1875 -8.859375 C 8.875 -8.304688 9.21875 -7.46875 9.21875 -6.34375 L 9.21875 0 Z M 6.640625 -4.40625 L 5.625 -4.375 C 4.875 -4.351562 4.3125 -4.21875 3.9375 -3.96875 C 3.570312 -3.71875 3.390625 -3.335938 3.390625 -2.828125 C 3.390625 -2.097656 3.8125 -1.734375 4.65625 -1.734375 C 5.257812 -1.734375 5.738281 -1.90625 6.09375 -2.25 C 6.457031 -2.59375 6.640625 -3.050781 6.640625 -3.625 Z M 6.640625 -4.40625 "/></g></g></g><g fill="#2d78bb" fill-opacity="1"><g transform="translate(310.815567, 228.538236)"><g><path d="M 8 -2.828125 C 8 -1.847656 7.660156 -1.101562 6.984375 -0.59375 C 6.304688 -0.0820312 5.289062 0.171875 3.9375 0.171875 C 3.25 0.171875 2.660156 0.125 2.171875 0.03125 C 1.679688 -0.0625 1.222656 -0.195312 0.796875 -0.375 L 0.796875 -2.53125 C 1.273438 -2.300781 1.816406 -2.109375 2.421875 -1.953125 C 3.023438 -1.804688 3.5625 -1.734375 4.03125 -1.734375 C 4.96875 -1.734375 5.4375 -2.003906 5.4375 -2.546875 C 5.4375 -2.742188 5.375 -2.90625 5.25 -3.03125 C 5.125 -3.164062 4.90625 -3.3125 4.59375 -3.46875 C 4.289062 -3.632812 3.882812 -3.828125 3.375 -4.046875 C 2.644531 -4.347656 2.109375 -4.628906 1.765625 -4.890625 C 1.421875 -5.148438 1.171875 -5.445312 1.015625 -5.78125 C 0.859375 -6.125 0.78125 -6.539062 0.78125 -7.03125 C 0.78125 -7.875 1.109375 -8.523438 1.765625 -8.984375 C 2.421875 -9.453125 3.347656 -9.6875 4.546875 -9.6875 C 5.691406 -9.6875 6.804688 -9.4375 7.890625 -8.9375 L 7.109375 -7.0625 C 6.628906 -7.269531 6.179688 -7.4375 5.765625 -7.5625 C 5.359375 -7.695312 4.941406 -7.765625 4.515625 -7.765625 C 3.742188 -7.765625 3.359375 -7.554688 3.359375 -7.140625 C 3.359375 -6.910156 3.476562 -6.707031 3.71875 -6.53125 C 3.96875 -6.363281 4.507812 -6.113281 5.34375 -5.78125 C 6.09375 -5.476562 6.640625 -5.195312 6.984375 -4.9375 C 7.328125 -4.675781 7.582031 -4.375 7.75 -4.03125 C 7.914062 -3.695312 8 -3.296875 8 -2.828125 Z M 8 -2.828125 "/></g></g></g><path stroke-linecap="round" transform="matrix(0.209397, -0.720176, 0.720176, 0.209397, 95.202435, 256.419271)" fill="none" stroke-linejoin="miter" d="M 25.581178 31.003086 C 53.444035 12.682873 83.174404 13.004441 114.767284 31.969243 " stroke="#1e9aa2" stroke-width="35" stroke-opacity="1" stroke-miterlimit="4"/><path stroke-linecap="round" transform="matrix(0.745474, -0.0822748, 0.0822748, 0.745474, 121.811987, 159.650454)" fill="none" stroke-linejoin="miter" d="M 25.640921 31.610266 C 52.150034 12.570063 79.849543 12.797566 108.739449 32.292774 " stroke="#1e9aa2" stroke-width="35" stroke-opacity="1" stroke-miterlimit="4"/><path stroke-linecap="round" transform="matrix(-0.612202, -0.433254, 0.433254, -0.612202, 185.128425, 315.816366)" fill="none" stroke-linejoin="miter" d="M 25.071252 54.045837 C 73.822567 6.292041 112.018694 5.338486 139.659636 51.185171 " stroke="#1e9aa2" stroke-width="35" stroke-opacity="1" stroke-miterlimit="4"/></svg>