<svg xmlns="http://www.w3.org/2000/svg" xmlns:xlink="http://www.w3.org/1999/xlink" width="500" zoomAndPan="magnify" viewBox="0 0 375 374.999991" height="500" preserveAspectRatio="xMidYMid meet" version="1.0"><defs><g/><clipPath id="89dfd5d918"><path d="M 160.792969 133.613281 L 177.707031 133.613281 L 177.707031 235.316406 L 160.792969 235.316406 Z M 160.792969 133.613281 " clip-rule="nonzero"/></clipPath><clipPath id="5e8a0c34f9"><path d="M 166.792969 133.613281 L 171.707031 133.613281 C 173.300781 133.613281 174.824219 134.246094 175.949219 135.371094 C 177.074219 136.496094 177.707031 138.023438 177.707031 139.613281 L 177.707031 229.277344 C 177.707031 230.867188 177.074219 232.394531 175.949219 233.519531 C 174.824219 234.644531 173.300781 235.277344 171.707031 235.277344 L 166.792969 235.277344 C 165.199219 235.277344 163.675781 234.644531 162.546875 233.519531 C 161.421875 232.394531 160.792969 230.867188 160.792969 229.277344 L 160.792969 139.613281 C 160.792969 138.023438 161.421875 136.496094 162.546875 135.371094 C 163.675781 134.246094 165.199219 133.613281 166.792969 133.613281 Z M 166.792969 133.613281 " clip-rule="nonzero"/></clipPath><clipPath id="712e7fac8c"><path d="M 41.488281 36.238281 L 59.957031 36.238281 L 59.957031 239.390625 L 41.488281 239.390625 Z M 41.488281 36.238281 " clip-rule="nonzero"/></clipPath><clipPath id="d7bf6a8f07"><path d="M 49.738281 36.238281 L 51.707031 36.238281 C 53.894531 36.238281 55.992188 37.105469 57.539062 38.65625 C 59.085938 40.203125 59.957031 42.300781 59.957031 44.488281 L 59.957031 231.140625 C 59.957031 233.328125 59.085938 235.425781 57.539062 236.972656 C 55.992188 238.519531 53.894531 239.390625 51.707031 239.390625 L 49.738281 239.390625 C 47.550781 239.390625 45.449219 238.519531 43.902344 236.972656 C 42.355469 235.425781 41.488281 233.328125 41.488281 231.140625 L 41.488281 44.488281 C 41.488281 42.300781 42.355469 40.203125 43.902344 38.65625 C 45.449219 37.105469 47.550781 36.238281 49.738281 36.238281 Z M 49.738281 36.238281 " clip-rule="nonzero"/></clipPath></defs><g clip-path="url(#89dfd5d918)"><g clip-path="url(#5e8a0c34f9)"><path fill="#1e9aa2" d="M 160.792969 133.613281 L 177.707031 133.613281 L 177.707031 235.25 L 160.792969 235.25 Z M 160.792969 133.613281 " fill-opacity="1" fill-rule="nonzero"/></g></g><path stroke-linecap="butt" transform="matrix(0.689051, 0.296157, -0.296157, 0.689051, 165.497485, 127.120465)" fill="none" stroke-linejoin="miter" d="M 8.015232 5.977857 C 91.352526 117.661623 148.565236 117.663585 179.651307 5.978957 " stroke="#2d78bb" stroke-width="20" stroke-opacity="1" stroke-miterlimit="4"/><path stroke-linecap="butt" transform="matrix(0.747211, 0.0646179, -0.0646179, 0.747211, 57.493854, 78.503865)" fill="none" stroke-linejoin="miter" d="M 8.517298 60.370924 C 49.874185 -6.790967 98.633805 -6.788827 154.784884 60.367865 " stroke="#2d78bb" stroke-width="20" stroke-opacity="1" stroke-miterlimit="4"/><g clip-path="url(#712e7fac8c)"><g clip-path="url(#d7bf6a8f07)"><path fill="#1e9aa2" d="M 41.488281 36.238281 L 59.957031 36.238281 L 59.957031 239.390625 L 41.488281 239.390625 Z M 41.488281 36.238281 " fill-opacity="1" fill-rule="nonzero"/></g></g><path stroke-linecap="butt" transform="matrix(0.74982, -0.0164069, 0.0164069, 0.74982, 175.104807, 94.258127)" fill="none" stroke-linejoin="miter" d="M 6.993562 43.980809 C 53.287408 -1.324609 99.585012 -1.327432 145.881051 43.977432 " stroke="#259da5" stroke-width="20" stroke-opacity="1" stroke-miterlimit="4"/><g fill="#2d78bb" fill-opacity="1"><g transform="translate(42.183918, 281.214828)"><g><path d="M 17.296875 -26.328125 C 14.796875 -26.328125 12.851562 -25.382812 11.46875 -23.5 C 10.09375 -21.613281 9.40625 -18.988281 9.40625 -15.625 C 9.40625 -8.613281 12.035156 -5.109375 17.296875 -5.109375 C 19.503906 -5.109375 22.175781 -5.660156 25.3125 -6.765625 L 25.3125 -1.1875 C 22.738281 -0.101562 19.859375 0.4375 16.671875 0.4375 C 12.109375 0.4375 8.613281 -0.945312 6.1875 -3.71875 C 3.769531 -6.5 2.5625 -10.484375 2.5625 -15.671875 C 2.5625 -18.929688 3.15625 -21.789062 4.34375 -24.25 C 5.53125 -26.707031 7.238281 -28.59375 9.46875 -29.90625 C 11.695312 -31.21875 14.304688 -31.875 17.296875 -31.875 C 20.347656 -31.875 23.414062 -31.132812 26.5 -29.65625 L 24.34375 -24.25 C 23.175781 -24.800781 21.992188 -25.285156 20.796875 -25.703125 C 19.609375 -26.117188 18.441406 -26.328125 17.296875 -26.328125 Z M 17.296875 -26.328125 "/></g></g></g><g fill="#2d78bb" fill-opacity="1"><g transform="translate(70.227421, 281.214828)"><g><path d="M 8.65625 -12.0625 C 8.65625 -9.675781 9.046875 -7.875 9.828125 -6.65625 C 10.609375 -5.4375 11.878906 -4.828125 13.640625 -4.828125 C 15.390625 -4.828125 16.644531 -5.429688 17.40625 -6.640625 C 18.175781 -7.859375 18.5625 -9.664062 18.5625 -12.0625 C 18.5625 -14.4375 18.175781 -16.21875 17.40625 -17.40625 C 16.632812 -18.59375 15.367188 -19.1875 13.609375 -19.1875 C 11.859375 -19.1875 10.59375 -18.59375 9.8125 -17.40625 C 9.039062 -16.226562 8.65625 -14.445312 8.65625 -12.0625 Z M 25.28125 -12.0625 C 25.28125 -8.144531 24.242188 -5.082031 22.171875 -2.875 C 20.109375 -0.664062 17.238281 0.4375 13.5625 0.4375 C 11.25 0.4375 9.210938 -0.0664062 7.453125 -1.078125 C 5.691406 -2.085938 4.335938 -3.539062 3.390625 -5.4375 C 2.453125 -7.332031 1.984375 -9.539062 1.984375 -12.0625 C 1.984375 -15.988281 3.003906 -19.039062 5.046875 -21.21875 C 7.097656 -23.394531 9.976562 -24.484375 13.6875 -24.484375 C 16 -24.484375 18.035156 -23.976562 19.796875 -22.96875 C 21.554688 -21.96875 22.910156 -20.53125 23.859375 -18.65625 C 24.804688 -16.78125 25.28125 -14.582031 25.28125 -12.0625 Z M 25.28125 -12.0625 "/></g></g></g><g fill="#2d78bb" fill-opacity="1"><g transform="translate(97.47582, 281.214828)"><g><path d="M 25.625 0 L 19.0625 0 L 19.0625 -14.03125 C 19.0625 -15.769531 18.753906 -17.070312 18.140625 -17.9375 C 17.523438 -18.800781 16.539062 -19.234375 15.1875 -19.234375 C 13.351562 -19.234375 12.03125 -18.617188 11.21875 -17.390625 C 10.40625 -16.171875 10 -14.144531 10 -11.3125 L 10 0 L 3.4375 0 L 3.4375 -24.03125 L 8.453125 -24.03125 L 9.328125 -20.953125 L 9.6875 -20.953125 C 10.414062 -22.117188 11.421875 -23 12.703125 -23.59375 C 13.992188 -24.1875 15.457031 -24.484375 17.09375 -24.484375 C 19.882812 -24.484375 22.003906 -23.722656 23.453125 -22.203125 C 24.898438 -20.691406 25.625 -18.515625 25.625 -15.671875 Z M 25.625 0 "/></g></g></g><g fill="#2d78bb" fill-opacity="1"><g transform="translate(126.400383, 281.214828)"><g><path d="M 20.203125 -7.140625 C 20.203125 -4.671875 19.34375 -2.789062 17.625 -1.5 C 15.914062 -0.207031 13.359375 0.4375 9.953125 0.4375 C 8.203125 0.4375 6.707031 0.316406 5.46875 0.078125 C 4.238281 -0.160156 3.085938 -0.507812 2.015625 -0.96875 L 2.015625 -6.390625 C 3.234375 -5.816406 4.601562 -5.332031 6.125 -4.9375 C 7.65625 -4.550781 9.003906 -4.359375 10.171875 -4.359375 C 12.546875 -4.359375 13.734375 -5.046875 13.734375 -6.421875 C 13.734375 -6.941406 13.570312 -7.363281 13.25 -7.6875 C 12.9375 -8.007812 12.394531 -8.375 11.625 -8.78125 C 10.851562 -9.1875 9.820312 -9.660156 8.53125 -10.203125 C 6.6875 -10.984375 5.328125 -11.703125 4.453125 -12.359375 C 3.585938 -13.015625 2.957031 -13.769531 2.5625 -14.625 C 2.175781 -15.476562 1.984375 -16.53125 1.984375 -17.78125 C 1.984375 -19.90625 2.804688 -21.550781 4.453125 -22.71875 C 6.109375 -23.894531 8.457031 -24.484375 11.5 -24.484375 C 14.394531 -24.484375 17.207031 -23.851562 19.9375 -22.59375 L 17.96875 -17.859375 C 16.757812 -18.378906 15.632812 -18.800781 14.59375 -19.125 C 13.550781 -19.457031 12.484375 -19.625 11.390625 -19.625 C 9.453125 -19.625 8.484375 -19.097656 8.484375 -18.046875 C 8.484375 -17.460938 8.796875 -16.953125 9.421875 -16.515625 C 10.046875 -16.085938 11.410156 -15.453125 13.515625 -14.609375 C 15.390625 -13.847656 16.765625 -13.140625 17.640625 -12.484375 C 18.515625 -11.828125 19.160156 -11.066406 19.578125 -10.203125 C 19.992188 -9.347656 20.203125 -8.328125 20.203125 -7.140625 Z M 20.203125 -7.140625 "/></g></g></g><g fill="#2d78bb" fill-opacity="1"><g transform="translate(148.276464, 281.214828)"><g><path d="M 20.453125 0 L 19.578125 -3.078125 L 19.234375 -3.078125 C 18.535156 -1.953125 17.539062 -1.082031 16.25 -0.46875 C 14.957031 0.132812 13.488281 0.4375 11.84375 0.4375 C 9.019531 0.4375 6.890625 -0.316406 5.453125 -1.828125 C 4.023438 -3.347656 3.3125 -5.523438 3.3125 -8.359375 L 3.3125 -24.03125 L 9.859375 -24.03125 L 9.859375 -10 C 9.859375 -8.257812 10.164062 -6.957031 10.78125 -6.09375 C 11.40625 -5.226562 12.390625 -4.796875 13.734375 -4.796875 C 15.566406 -4.796875 16.890625 -5.40625 17.703125 -6.625 C 18.523438 -7.851562 18.9375 -9.882812 18.9375 -12.71875 L 18.9375 -24.03125 L 25.484375 -24.03125 L 25.484375 0 Z M 20.453125 0 "/></g></g></g><g fill="#2d78bb" fill-opacity="1"><g transform="translate(177.201027, 281.214828)"><g><path d="M 10 0 L 3.4375 0 L 3.4375 -33.4375 L 10 -33.4375 Z M 10 0 "/></g></g></g><g fill="#2d78bb" fill-opacity="1"><g transform="translate(190.631823, 281.214828)"><g><path d="M 13.5625 -4.796875 C 14.707031 -4.796875 16.082031 -5.046875 17.6875 -5.546875 L 17.6875 -0.671875 C 16.050781 0.0664062 14.046875 0.4375 11.671875 0.4375 C 9.046875 0.4375 7.132812 -0.222656 5.9375 -1.546875 C 4.738281 -2.878906 4.140625 -4.867188 4.140625 -7.515625 L 4.140625 -19.109375 L 1.015625 -19.109375 L 1.015625 -21.875 L 4.625 -24.078125 L 6.515625 -29.140625 L 10.703125 -29.140625 L 10.703125 -24.03125 L 17.4375 -24.03125 L 17.4375 -19.109375 L 10.703125 -19.109375 L 10.703125 -7.515625 C 10.703125 -6.585938 10.960938 -5.898438 11.484375 -5.453125 C 12.003906 -5.015625 12.695312 -4.796875 13.5625 -4.796875 Z M 13.5625 -4.796875 "/></g></g></g><g fill="#2d78bb" fill-opacity="1"><g transform="translate(209.735788, 281.214828)"><g><path d="M 8.65625 -12.0625 C 8.65625 -9.675781 9.046875 -7.875 9.828125 -6.65625 C 10.609375 -5.4375 11.878906 -4.828125 13.640625 -4.828125 C 15.390625 -4.828125 16.644531 -5.429688 17.40625 -6.640625 C 18.175781 -7.859375 18.5625 -9.664062 18.5625 -12.0625 C 18.5625 -14.4375 18.175781 -16.21875 17.40625 -17.40625 C 16.632812 -18.59375 15.367188 -19.1875 13.609375 -19.1875 C 11.859375 -19.1875 10.59375 -18.59375 9.8125 -17.40625 C 9.039062 -16.226562 8.65625 -14.445312 8.65625 -12.0625 Z M 25.28125 -12.0625 C 25.28125 -8.144531 24.242188 -5.082031 22.171875 -2.875 C 20.109375 -0.664062 17.238281 0.4375 13.5625 0.4375 C 11.25 0.4375 9.210938 -0.0664062 7.453125 -1.078125 C 5.691406 -2.085938 4.335938 -3.539062 3.390625 -5.4375 C 2.453125 -7.332031 1.984375 -9.539062 1.984375 -12.0625 C 1.984375 -15.988281 3.003906 -19.039062 5.046875 -21.21875 C 7.097656 -23.394531 9.976562 -24.484375 13.6875 -24.484375 C 16 -24.484375 18.035156 -23.976562 19.796875 -22.96875 C 21.554688 -21.96875 22.910156 -20.53125 23.859375 -18.65625 C 24.804688 -16.78125 25.28125 -14.582031 25.28125 -12.0625 Z M 25.28125 -12.0625 "/></g></g></g><g fill="#2d78bb" fill-opacity="1"><g transform="translate(236.984187, 281.214828)"><g><path d="M 16.84375 -24.484375 C 17.738281 -24.484375 18.476562 -24.414062 19.0625 -24.28125 L 18.5625 -18.140625 C 18.039062 -18.285156 17.398438 -18.359375 16.640625 -18.359375 C 14.546875 -18.359375 12.914062 -17.816406 11.75 -16.734375 C 10.582031 -15.660156 10 -14.160156 10 -12.234375 L 10 0 L 3.4375 0 L 3.4375 -24.03125 L 8.40625 -24.03125 L 9.375 -19.984375 L 9.6875 -19.984375 C 10.4375 -21.335938 11.441406 -22.425781 12.703125 -23.25 C 13.972656 -24.070312 15.351562 -24.484375 16.84375 -24.484375 Z M 16.84375 -24.484375 "/></g></g></g><g fill="#2d78bb" fill-opacity="1"><g transform="translate(256.969212, 281.214828)"><g><path d="M 3.15625 -30.234375 C 3.15625 -32.367188 4.347656 -33.4375 6.734375 -33.4375 C 9.109375 -33.4375 10.296875 -32.367188 10.296875 -30.234375 C 10.296875 -29.222656 10 -28.429688 9.40625 -27.859375 C 8.8125 -27.296875 7.921875 -27.015625 6.734375 -27.015625 C 4.347656 -27.015625 3.15625 -28.085938 3.15625 -30.234375 Z M 10 0 L 3.4375 0 L 3.4375 -24.03125 L 10 -24.03125 Z M 10 0 "/></g></g></g><g fill="#2d78bb" fill-opacity="1"><g transform="translate(270.400008, 281.214828)"><g><path d="M 18.703125 0 L 17.4375 -3.265625 L 17.265625 -3.265625 C 16.160156 -1.878906 15.019531 -0.914062 13.84375 -0.375 C 12.675781 0.164062 11.15625 0.4375 9.28125 0.4375 C 6.976562 0.4375 5.160156 -0.222656 3.828125 -1.546875 C 2.503906 -2.867188 1.84375 -4.742188 1.84375 -7.171875 C 1.84375 -9.722656 2.734375 -11.601562 4.515625 -12.8125 C 6.304688 -14.03125 9 -14.703125 12.59375 -14.828125 L 16.765625 -14.953125 L 16.765625 -16.015625 C 16.765625 -18.453125 15.519531 -19.671875 13.03125 -19.671875 C 11.101562 -19.671875 8.84375 -19.085938 6.25 -17.921875 L 4.078125 -22.359375 C 6.847656 -23.796875 9.914062 -24.515625 13.28125 -24.515625 C 16.507812 -24.515625 18.984375 -23.8125 20.703125 -22.40625 C 22.421875 -21.007812 23.28125 -18.878906 23.28125 -16.015625 L 23.28125 0 Z M 16.765625 -11.140625 L 14.234375 -11.046875 C 12.328125 -10.984375 10.90625 -10.632812 9.96875 -10 C 9.039062 -9.375 8.578125 -8.421875 8.578125 -7.140625 C 8.578125 -5.285156 9.632812 -4.359375 11.75 -4.359375 C 13.269531 -4.359375 14.484375 -4.796875 15.390625 -5.671875 C 16.304688 -6.546875 16.765625 -7.707031 16.765625 -9.15625 Z M 16.765625 -11.140625 "/></g></g></g><g fill="#2d78bb" fill-opacity="1"><g transform="translate(296.98224, 281.214828)"><g><path d="M 20.203125 -7.140625 C 20.203125 -4.671875 19.34375 -2.789062 17.625 -1.5 C 15.914062 -0.207031 13.359375 0.4375 9.953125 0.4375 C 8.203125 0.4375 6.707031 0.316406 5.46875 0.078125 C 4.238281 -0.160156 3.085938 -0.507812 2.015625 -0.96875 L 2.015625 -6.390625 C 3.234375 -5.816406 4.601562 -5.332031 6.125 -4.9375 C 7.65625 -4.550781 9.003906 -4.359375 10.171875 -4.359375 C 12.546875 -4.359375 13.734375 -5.046875 13.734375 -6.421875 C 13.734375 -6.941406 13.570312 -7.363281 13.25 -7.6875 C 12.9375 -8.007812 12.394531 -8.375 11.625 -8.78125 C 10.851562 -9.1875 9.820312 -9.660156 8.53125 -10.203125 C 6.6875 -10.984375 5.328125 -11.703125 4.453125 -12.359375 C 3.585938 -13.015625 2.957031 -13.769531 2.5625 -14.625 C 2.175781 -15.476562 1.984375 -16.53125 1.984375 -17.78125 C 1.984375 -19.90625 2.804688 -21.550781 4.453125 -22.71875 C 6.109375 -23.894531 8.457031 -24.484375 11.5 -24.484375 C 14.394531 -24.484375 17.207031 -23.851562 19.9375 -22.59375 L 17.96875 -17.859375 C 16.757812 -18.378906 15.632812 -18.800781 14.59375 -19.125 C 13.550781 -19.457031 12.484375 -19.625 11.390625 -19.625 C 9.453125 -19.625 8.484375 -19.097656 8.484375 -18.046875 C 8.484375 -17.460938 8.796875 -16.953125 9.421875 -16.515625 C 10.046875 -16.085938 11.410156 -15.453125 13.515625 -14.609375 C 15.390625 -13.847656 16.765625 -13.140625 17.640625 -12.484375 C 18.515625 -11.828125 19.160156 -11.066406 19.578125 -10.203125 C 19.992188 -9.347656 20.203125 -8.328125 20.203125 -7.140625 Z M 20.203125 -7.140625 "/></g></g></g><g fill="#2d78bb" fill-opacity="1"><g transform="translate(41.693771, 321.227823)"><g><path d="M 29.703125 0 L 23.0625 0 L 23.0625 -13.5625 L 10.609375 -13.5625 L 10.609375 0 L 3.953125 0 L 3.953125 -31.421875 L 10.609375 -31.421875 L 10.609375 -19.109375 L 23.0625 -19.109375 L 23.0625 -31.421875 L 29.703125 -31.421875 Z M 29.703125 0 "/></g></g></g><g fill="#2d78bb" fill-opacity="1"><g transform="translate(75.367464, 321.227823)"><g><path d="M 8.65625 -12.0625 C 8.65625 -9.675781 9.046875 -7.875 9.828125 -6.65625 C 10.609375 -5.4375 11.878906 -4.828125 13.640625 -4.828125 C 15.390625 -4.828125 16.644531 -5.429688 17.40625 -6.640625 C 18.175781 -7.859375 18.5625 -9.664062 18.5625 -12.0625 C 18.5625 -14.4375 18.175781 -16.21875 17.40625 -17.40625 C 16.632812 -18.59375 15.367188 -19.1875 13.609375 -19.1875 C 11.859375 -19.1875 10.59375 -18.59375 9.8125 -17.40625 C 9.039062 -16.226562 8.65625 -14.445312 8.65625 -12.0625 Z M 25.28125 -12.0625 C 25.28125 -8.144531 24.242188 -5.082031 22.171875 -2.875 C 20.109375 -0.664062 17.238281 0.4375 13.5625 0.4375 C 11.25 0.4375 9.210938 -0.0664062 7.453125 -1.078125 C 5.691406 -2.085938 4.335938 -3.539062 3.390625 -5.4375 C 2.453125 -7.332031 1.984375 -9.539062 1.984375 -12.0625 C 1.984375 -15.988281 3.003906 -19.039062 5.046875 -21.21875 C 7.097656 -23.394531 9.976562 -24.484375 13.6875 -24.484375 C 16 -24.484375 18.035156 -23.976562 19.796875 -22.96875 C 21.554688 -21.96875 22.910156 -20.53125 23.859375 -18.65625 C 24.804688 -16.78125 25.28125 -14.582031 25.28125 -12.0625 Z M 25.28125 -12.0625 "/></g></g></g><g fill="#2d78bb" fill-opacity="1"><g transform="translate(102.615863, 321.227823)"><g><path d="M 20.203125 -7.140625 C 20.203125 -4.671875 19.34375 -2.789062 17.625 -1.5 C 15.914062 -0.207031 13.359375 0.4375 9.953125 0.4375 C 8.203125 0.4375 6.707031 0.316406 5.46875 0.078125 C 4.238281 -0.160156 3.085938 -0.507812 2.015625 -0.96875 L 2.015625 -6.390625 C 3.234375 -5.816406 4.601562 -5.332031 6.125 -4.9375 C 7.65625 -4.550781 9.003906 -4.359375 10.171875 -4.359375 C 12.546875 -4.359375 13.734375 -5.046875 13.734375 -6.421875 C 13.734375 -6.941406 13.570312 -7.363281 13.25 -7.6875 C 12.9375 -8.007812 12.394531 -8.375 11.625 -8.78125 C 10.851562 -9.1875 9.820312 -9.660156 8.53125 -10.203125 C 6.6875 -10.984375 5.328125 -11.703125 4.453125 -12.359375 C 3.585938 -13.015625 2.957031 -13.769531 2.5625 -14.625 C 2.175781 -15.476562 1.984375 -16.53125 1.984375 -17.78125 C 1.984375 -19.90625 2.804688 -21.550781 4.453125 -22.71875 C 6.109375 -23.894531 8.457031 -24.484375 11.5 -24.484375 C 14.394531 -24.484375 17.207031 -23.851562 19.9375 -22.59375 L 17.96875 -17.859375 C 16.757812 -18.378906 15.632812 -18.800781 14.59375 -19.125 C 13.550781 -19.457031 12.484375 -19.625 11.390625 -19.625 C 9.453125 -19.625 8.484375 -19.097656 8.484375 -18.046875 C 8.484375 -17.460938 8.796875 -16.953125 9.421875 -16.515625 C 10.046875 -16.085938 11.410156 -15.453125 13.515625 -14.609375 C 15.390625 -13.847656 16.765625 -13.140625 17.640625 -12.484375 C 18.515625 -11.828125 19.160156 -11.066406 19.578125 -10.203125 C 19.992188 -9.347656 20.203125 -8.328125 20.203125 -7.140625 Z M 20.203125 -7.140625 "/></g></g></g><g fill="#2d78bb" fill-opacity="1"><g transform="translate(124.491944, 321.227823)"><g><path d="M 16.640625 0.4375 C 13.816406 0.4375 11.601562 -0.585938 10 -2.640625 L 9.65625 -2.640625 C 9.882812 -0.640625 10 0.519531 10 0.84375 L 10 10.578125 L 3.4375 10.578125 L 3.4375 -24.03125 L 8.765625 -24.03125 L 9.6875 -20.90625 L 10 -20.90625 C 11.53125 -23.289062 13.800781 -24.484375 16.8125 -24.484375 C 19.644531 -24.484375 21.863281 -23.382812 23.46875 -21.1875 C 25.070312 -19 25.875 -15.957031 25.875 -12.0625 C 25.875 -9.488281 25.5 -7.253906 24.75 -5.359375 C 24 -3.472656 22.925781 -2.035156 21.53125 -1.046875 C 20.144531 -0.0546875 18.515625 0.4375 16.640625 0.4375 Z M 14.703125 -19.234375 C 13.078125 -19.234375 11.890625 -18.734375 11.140625 -17.734375 C 10.398438 -16.742188 10.019531 -15.101562 10 -12.8125 L 10 -12.09375 C 10 -9.519531 10.378906 -7.671875 11.140625 -6.546875 C 11.910156 -5.429688 13.125 -4.875 14.78125 -4.875 C 17.71875 -4.875 19.1875 -7.296875 19.1875 -12.140625 C 19.1875 -14.503906 18.820312 -16.273438 18.09375 -17.453125 C 17.375 -18.640625 16.242188 -19.234375 14.703125 -19.234375 Z M 14.703125 -19.234375 "/></g></g></g><g fill="#2d78bb" fill-opacity="1"><g transform="translate(152.342043, 321.227823)"><g><path d="M 3.15625 -30.234375 C 3.15625 -32.367188 4.347656 -33.4375 6.734375 -33.4375 C 9.109375 -33.4375 10.296875 -32.367188 10.296875 -30.234375 C 10.296875 -29.222656 10 -28.429688 9.40625 -27.859375 C 8.8125 -27.296875 7.921875 -27.015625 6.734375 -27.015625 C 4.347656 -27.015625 3.15625 -28.085938 3.15625 -30.234375 Z M 10 0 L 3.4375 0 L 3.4375 -24.03125 L 10 -24.03125 Z M 10 0 "/></g></g></g><g fill="#2d78bb" fill-opacity="1"><g transform="translate(165.772839, 321.227823)"><g><path d="M 13.5625 -4.796875 C 14.707031 -4.796875 16.082031 -5.046875 17.6875 -5.546875 L 17.6875 -0.671875 C 16.050781 0.0664062 14.046875 0.4375 11.671875 0.4375 C 9.046875 0.4375 7.132812 -0.222656 5.9375 -1.546875 C 4.738281 -2.878906 4.140625 -4.867188 4.140625 -7.515625 L 4.140625 -19.109375 L 1.015625 -19.109375 L 1.015625 -21.875 L 4.625 -24.078125 L 6.515625 -29.140625 L 10.703125 -29.140625 L 10.703125 -24.03125 L 17.4375 -24.03125 L 17.4375 -19.109375 L 10.703125 -19.109375 L 10.703125 -7.515625 C 10.703125 -6.585938 10.960938 -5.898438 11.484375 -5.453125 C 12.003906 -5.015625 12.695312 -4.796875 13.5625 -4.796875 Z M 13.5625 -4.796875 "/></g></g></g><g fill="#2d78bb" fill-opacity="1"><g transform="translate(184.876803, 321.227823)"><g><path d="M 18.703125 0 L 17.4375 -3.265625 L 17.265625 -3.265625 C 16.160156 -1.878906 15.019531 -0.914062 13.84375 -0.375 C 12.675781 0.164062 11.15625 0.4375 9.28125 0.4375 C 6.976562 0.4375 5.160156 -0.222656 3.828125 -1.546875 C 2.503906 -2.867188 1.84375 -4.742188 1.84375 -7.171875 C 1.84375 -9.722656 2.734375 -11.601562 4.515625 -12.8125 C 6.304688 -14.03125 9 -14.703125 12.59375 -14.828125 L 16.765625 -14.953125 L 16.765625 -16.015625 C 16.765625 -18.453125 15.519531 -19.671875 13.03125 -19.671875 C 11.101562 -19.671875 8.84375 -19.085938 6.25 -17.921875 L 4.078125 -22.359375 C 6.847656 -23.796875 9.914062 -24.515625 13.28125 -24.515625 C 16.507812 -24.515625 18.984375 -23.8125 20.703125 -22.40625 C 22.421875 -21.007812 23.28125 -18.878906 23.28125 -16.015625 L 23.28125 0 Z M 16.765625 -11.140625 L 14.234375 -11.046875 C 12.328125 -10.984375 10.90625 -10.632812 9.96875 -10 C 9.039062 -9.375 8.578125 -8.421875 8.578125 -7.140625 C 8.578125 -5.285156 9.632812 -4.359375 11.75 -4.359375 C 13.269531 -4.359375 14.484375 -4.796875 15.390625 -5.671875 C 16.304688 -6.546875 16.765625 -7.707031 16.765625 -9.15625 Z M 16.765625 -11.140625 "/></g></g></g><g fill="#2d78bb" fill-opacity="1"><g transform="translate(211.459035, 321.227823)"><g><path d="M 10 0 L 3.4375 0 L 3.4375 -33.4375 L 10 -33.4375 Z M 10 0 "/></g></g></g><g fill="#2d78bb" fill-opacity="1"><g transform="translate(224.889831, 321.227823)"><g><path d="M 18.703125 0 L 17.4375 -3.265625 L 17.265625 -3.265625 C 16.160156 -1.878906 15.019531 -0.914062 13.84375 -0.375 C 12.675781 0.164062 11.15625 0.4375 9.28125 0.4375 C 6.976562 0.4375 5.160156 -0.222656 3.828125 -1.546875 C 2.503906 -2.867188 1.84375 -4.742188 1.84375 -7.171875 C 1.84375 -9.722656 2.734375 -11.601562 4.515625 -12.8125 C 6.304688 -14.03125 9 -14.703125 12.59375 -14.828125 L 16.765625 -14.953125 L 16.765625 -16.015625 C 16.765625 -18.453125 15.519531 -19.671875 13.03125 -19.671875 C 11.101562 -19.671875 8.84375 -19.085938 6.25 -17.921875 L 4.078125 -22.359375 C 6.847656 -23.796875 9.914062 -24.515625 13.28125 -24.515625 C 16.507812 -24.515625 18.984375 -23.8125 20.703125 -22.40625 C 22.421875 -21.007812 23.28125 -18.878906 23.28125 -16.015625 L 23.28125 0 Z M 16.765625 -11.140625 L 14.234375 -11.046875 C 12.328125 -10.984375 10.90625 -10.632812 9.96875 -10 C 9.039062 -9.375 8.578125 -8.421875 8.578125 -7.140625 C 8.578125 -5.285156 9.632812 -4.359375 11.75 -4.359375 C 13.269531 -4.359375 14.484375 -4.796875 15.390625 -5.671875 C 16.304688 -6.546875 16.765625 -7.707031 16.765625 -9.15625 Z M 16.765625 -11.140625 "/></g></g></g><g fill="#2d78bb" fill-opacity="1"><g transform="translate(251.472063, 321.227823)"><g><path d="M 16.84375 -24.484375 C 17.738281 -24.484375 18.476562 -24.414062 19.0625 -24.28125 L 18.5625 -18.140625 C 18.039062 -18.285156 17.398438 -18.359375 16.640625 -18.359375 C 14.546875 -18.359375 12.914062 -17.816406 11.75 -16.734375 C 10.582031 -15.660156 10 -14.160156 10 -12.234375 L 10 0 L 3.4375 0 L 3.4375 -24.03125 L 8.40625 -24.03125 L 9.375 -19.984375 L 9.6875 -19.984375 C 10.4375 -21.335938 11.441406 -22.425781 12.703125 -23.25 C 13.972656 -24.070312 15.351562 -24.484375 16.84375 -24.484375 Z M 16.84375 -24.484375 "/></g></g></g><g fill="#2d78bb" fill-opacity="1"><g transform="translate(271.457087, 321.227823)"><g><path d="M 13.390625 -19.8125 C 12.003906 -19.8125 10.914062 -19.367188 10.125 -18.484375 C 9.332031 -17.609375 8.878906 -16.363281 8.765625 -14.75 L 17.96875 -14.75 C 17.9375 -16.363281 17.507812 -17.609375 16.6875 -18.484375 C 15.875 -19.367188 14.773438 -19.8125 13.390625 -19.8125 Z M 14.3125 0.4375 C 10.445312 0.4375 7.425781 -0.628906 5.25 -2.765625 C 3.070312 -4.898438 1.984375 -7.925781 1.984375 -11.84375 C 1.984375 -15.863281 2.988281 -18.972656 5 -21.171875 C 7.007812 -23.378906 9.789062 -24.484375 13.34375 -24.484375 C 16.738281 -24.484375 19.378906 -23.515625 21.265625 -21.578125 C 23.160156 -19.640625 24.109375 -16.96875 24.109375 -13.5625 L 24.109375 -10.375 L 8.625 -10.375 C 8.6875 -8.519531 9.234375 -7.066406 10.265625 -6.015625 C 11.304688 -4.972656 12.753906 -4.453125 14.609375 -4.453125 C 16.054688 -4.453125 17.425781 -4.597656 18.71875 -4.890625 C 20.007812 -5.191406 21.359375 -5.675781 22.765625 -6.34375 L 22.765625 -1.265625 C 21.617188 -0.691406 20.390625 -0.265625 19.078125 0.015625 C 17.773438 0.296875 16.1875 0.4375 14.3125 0.4375 Z M 14.3125 0.4375 "/></g></g></g><g fill="#2d78bb" fill-opacity="1"><g transform="translate(297.459109, 321.227823)"><g><path d="M 20.203125 -7.140625 C 20.203125 -4.671875 19.34375 -2.789062 17.625 -1.5 C 15.914062 -0.207031 13.359375 0.4375 9.953125 0.4375 C 8.203125 0.4375 6.707031 0.316406 5.46875 0.078125 C 4.238281 -0.160156 3.085938 -0.507812 2.015625 -0.96875 L 2.015625 -6.390625 C 3.234375 -5.816406 4.601562 -5.332031 6.125 -4.9375 C 7.65625 -4.550781 9.003906 -4.359375 10.171875 -4.359375 C 12.546875 -4.359375 13.734375 -5.046875 13.734375 -6.421875 C 13.734375 -6.941406 13.570312 -7.363281 13.25 -7.6875 C 12.9375 -8.007812 12.394531 -8.375 11.625 -8.78125 C 10.851562 -9.1875 9.820312 -9.660156 8.53125 -10.203125 C 6.6875 -10.984375 5.328125 -11.703125 4.453125 -12.359375 C 3.585938 -13.015625 2.957031 -13.769531 2.5625 -14.625 C 2.175781 -15.476562 1.984375 -16.53125 1.984375 -17.78125 C 1.984375 -19.90625 2.804688 -21.550781 4.453125 -22.71875 C 6.109375 -23.894531 8.457031 -24.484375 11.5 -24.484375 C 14.394531 -24.484375 17.207031 -23.851562 19.9375 -22.59375 L 17.96875 -17.859375 C 16.757812 -18.378906 15.632812 -18.800781 14.59375 -19.125 C 13.550781 -19.457031 12.484375 -19.625 11.390625 -19.625 C 9.453125 -19.625 8.484375 -19.097656 8.484375 -18.046875 C 8.484375 -17.460938 8.796875 -16.953125 9.421875 -16.515625 C 10.046875 -16.085938 11.410156 -15.453125 13.515625 -14.609375 C 15.390625 -13.847656 16.765625 -13.140625 17.640625 -12.484375 C 18.515625 -11.828125 19.160156 -11.066406 19.578125 -10.203125 C 19.992188 -9.347656 20.203125 -8.328125 20.203125 -7.140625 Z M 20.203125 -7.140625 "/></g></g></g></svg>