<svg xmlns="http://www.w3.org/2000/svg" xmlns:xlink="http://www.w3.org/1999/xlink" width="500" zoomAndPan="magnify" viewBox="0 0 375 374.999991" height="500" preserveAspectRatio="xMidYMid meet" version="1.0"><defs><g/><clipPath id="5195b8d802"><path d="M 148.894531 198.703125 L 156.578125 198.703125 L 156.578125 244.902344 L 148.894531 244.902344 Z M 148.894531 198.703125 " clip-rule="nonzero"/></clipPath><clipPath id="30406019d3"><path d="M 152.734375 198.703125 C 154.859375 198.703125 156.578125 200.421875 156.578125 202.546875 L 156.578125 241.042969 C 156.578125 243.164062 154.859375 244.882812 152.734375 244.882812 C 150.613281 244.882812 148.894531 243.164062 148.894531 241.042969 L 148.894531 202.546875 C 148.894531 200.421875 150.613281 198.703125 152.734375 198.703125 Z M 152.734375 198.703125 " clip-rule="nonzero"/></clipPath><clipPath id="23dee6950c"><path d="M 95.746094 152.601562 L 104.132812 152.601562 L 104.132812 244.882812 L 95.746094 244.882812 Z M 95.746094 152.601562 " clip-rule="nonzero"/></clipPath><clipPath id="fe8f22563e"><path d="M 99.941406 152.601562 C 102.257812 152.601562 104.132812 154.476562 104.132812 156.796875 L 104.132812 240.691406 C 104.132812 243.007812 102.257812 244.882812 99.941406 244.882812 C 97.625 244.882812 95.746094 243.007812 95.746094 240.691406 L 95.746094 156.796875 C 95.746094 154.476562 97.625 152.601562 99.941406 152.601562 Z M 99.941406 152.601562 " clip-rule="nonzero"/></clipPath></defs><g clip-path="url(#5195b8d802)"><g clip-path="url(#30406019d3)"><path fill="#1e9aa2" d="M 148.894531 198.703125 L 156.578125 198.703125 L 156.578125 244.871094 L 148.894531 244.871094 Z M 148.894531 198.703125 " fill-opacity="1" fill-rule="nonzero"/></g></g><path stroke-linecap="butt" transform="matrix(0.689051, 0.296157, -0.296157, 0.689051, 151.046963, 195.780866)" fill="none" stroke-linejoin="miter" d="M 3.605619 2.691281 C 41.464473 53.421649 67.452907 53.425357 81.571595 2.690777 " stroke="#2d78bb" stroke-width="9" stroke-opacity="1" stroke-miterlimit="4"/><path stroke-linecap="butt" transform="matrix(0.744619, 0.0896796, -0.0896796, 0.744619, 103.727539, 172.027782)" fill="none" stroke-linejoin="miter" d="M 3.856433 27.501227 C 22.264402 -3.164674 44.019162 -3.167011 69.126508 27.498763 " stroke="#2d78bb" stroke-width="9" stroke-opacity="1" stroke-miterlimit="4"/><g clip-path="url(#23dee6950c)"><g clip-path="url(#fe8f22563e)"><path fill="#1e9aa2" d="M 95.746094 152.601562 L 104.132812 152.601562 L 104.132812 244.882812 L 95.746094 244.882812 Z M 95.746094 152.601562 " fill-opacity="1" fill-rule="nonzero"/></g></g><path stroke-linecap="butt" transform="matrix(0.74982, -0.0164069, 0.0164069, 0.74982, 156.46618, 178.988191)" fill="none" stroke-linejoin="miter" d="M 3.146137 19.938301 C 24.179531 -0.64296 45.205476 -0.646541 66.239365 19.938314 " stroke="#259da5" stroke-width="9" stroke-opacity="1" stroke-miterlimit="4"/><g fill="#2d78bb" fill-opacity="1"><g transform="translate(94.854783, 263.884495)"><g><path d="M 7.859375 -11.96875 C 6.722656 -11.96875 5.84375 -11.535156 5.21875 -10.671875 C 4.59375 -9.816406 4.28125 -8.625 4.28125 -7.09375 C 4.28125 -3.914062 5.472656 -2.328125 7.859375 -2.328125 C 8.859375 -2.328125 10.070312 -2.578125 11.5 -3.078125 L 11.5 -0.53125 C 10.332031 -0.0390625 9.023438 0.203125 7.578125 0.203125 C 5.503906 0.203125 3.914062 -0.425781 2.8125 -1.6875 C 1.707031 -2.945312 1.15625 -4.757812 1.15625 -7.125 C 1.15625 -8.601562 1.425781 -9.898438 1.96875 -11.015625 C 2.507812 -12.140625 3.285156 -13 4.296875 -13.59375 C 5.316406 -14.1875 6.503906 -14.484375 7.859375 -14.484375 C 9.242188 -14.484375 10.640625 -14.148438 12.046875 -13.484375 L 11.0625 -11.015625 C 10.53125 -11.265625 9.992188 -11.484375 9.453125 -11.671875 C 8.910156 -11.867188 8.378906 -11.96875 7.859375 -11.96875 Z M 7.859375 -11.96875 "/></g></g></g><g fill="#2d78bb" fill-opacity="1"><g transform="translate(107.593944, 263.884495)"><g><path d="M 3.9375 -5.484375 C 3.9375 -4.398438 4.113281 -3.582031 4.46875 -3.03125 C 4.820312 -2.476562 5.398438 -2.203125 6.203125 -2.203125 C 6.992188 -2.203125 7.5625 -2.472656 7.90625 -3.015625 C 8.257812 -3.566406 8.4375 -4.390625 8.4375 -5.484375 C 8.4375 -6.554688 8.257812 -7.363281 7.90625 -7.90625 C 7.5625 -8.445312 6.988281 -8.71875 6.1875 -8.71875 C 5.382812 -8.71875 4.804688 -8.445312 4.453125 -7.90625 C 4.109375 -7.375 3.9375 -6.566406 3.9375 -5.484375 Z M 11.484375 -5.484375 C 11.484375 -3.703125 11.015625 -2.304688 10.078125 -1.296875 C 9.140625 -0.296875 7.832031 0.203125 6.15625 0.203125 C 5.113281 0.203125 4.191406 -0.0234375 3.390625 -0.484375 C 2.585938 -0.953125 1.972656 -1.613281 1.546875 -2.46875 C 1.117188 -3.332031 0.90625 -4.335938 0.90625 -5.484375 C 0.90625 -7.265625 1.367188 -8.648438 2.296875 -9.640625 C 3.222656 -10.628906 4.53125 -11.125 6.21875 -11.125 C 7.269531 -11.125 8.195312 -10.894531 9 -10.4375 C 9.800781 -9.976562 10.414062 -9.320312 10.84375 -8.46875 C 11.269531 -7.625 11.484375 -6.628906 11.484375 -5.484375 Z M 11.484375 -5.484375 "/></g></g></g><g fill="#2d78bb" fill-opacity="1"><g transform="translate(119.971919, 263.884495)"><g><path d="M 11.640625 0 L 8.65625 0 L 8.65625 -6.375 C 8.65625 -7.164062 8.515625 -7.753906 8.234375 -8.140625 C 7.960938 -8.535156 7.519531 -8.734375 6.90625 -8.734375 C 6.070312 -8.734375 5.46875 -8.457031 5.09375 -7.90625 C 4.726562 -7.351562 4.546875 -6.429688 4.546875 -5.140625 L 4.546875 0 L 1.5625 0 L 1.5625 -10.921875 L 3.84375 -10.921875 L 4.234375 -9.515625 L 4.40625 -9.515625 C 4.738281 -10.046875 5.195312 -10.445312 5.78125 -10.71875 C 6.363281 -10.988281 7.023438 -11.125 7.765625 -11.125 C 9.035156 -11.125 10 -10.78125 10.65625 -10.09375 C 11.3125 -9.40625 11.640625 -8.414062 11.640625 -7.125 Z M 11.640625 0 "/></g></g></g><g fill="#2d78bb" fill-opacity="1"><g transform="translate(133.111315, 263.884495)"><g><path d="M 9.1875 -3.25 C 9.1875 -2.125 8.796875 -1.265625 8.015625 -0.671875 C 7.234375 -0.0859375 6.066406 0.203125 4.515625 0.203125 C 3.722656 0.203125 3.046875 0.144531 2.484375 0.03125 C 1.929688 -0.0703125 1.410156 -0.226562 0.921875 -0.4375 L 0.921875 -2.90625 C 1.472656 -2.644531 2.09375 -2.425781 2.78125 -2.25 C 3.476562 -2.070312 4.09375 -1.984375 4.625 -1.984375 C 5.695312 -1.984375 6.234375 -2.296875 6.234375 -2.921875 C 6.234375 -3.148438 6.160156 -3.335938 6.015625 -3.484375 C 5.878906 -3.640625 5.632812 -3.804688 5.28125 -3.984375 C 4.925781 -4.171875 4.457031 -4.390625 3.875 -4.640625 C 3.039062 -4.992188 2.425781 -5.316406 2.03125 -5.609375 C 1.632812 -5.910156 1.347656 -6.253906 1.171875 -6.640625 C 0.992188 -7.035156 0.90625 -7.515625 0.90625 -8.078125 C 0.90625 -9.046875 1.28125 -9.796875 2.03125 -10.328125 C 2.78125 -10.859375 3.84375 -11.125 5.21875 -11.125 C 6.539062 -11.125 7.820312 -10.835938 9.0625 -10.265625 L 8.171875 -8.109375 C 7.617188 -8.347656 7.101562 -8.539062 6.625 -8.6875 C 6.15625 -8.84375 5.671875 -8.921875 5.171875 -8.921875 C 4.296875 -8.921875 3.859375 -8.679688 3.859375 -8.203125 C 3.859375 -7.929688 4 -7.695312 4.28125 -7.5 C 4.5625 -7.3125 5.179688 -7.023438 6.140625 -6.640625 C 6.992188 -6.296875 7.617188 -5.972656 8.015625 -5.671875 C 8.410156 -5.367188 8.703125 -5.019531 8.890625 -4.625 C 9.085938 -4.238281 9.1875 -3.78125 9.1875 -3.25 Z M 9.1875 -3.25 "/></g></g></g><g fill="#2d78bb" fill-opacity="1"><g transform="translate(143.048837, 263.884495)"><g><path d="M 9.296875 0 L 8.890625 -1.390625 L 8.734375 -1.390625 C 8.421875 -0.890625 7.96875 -0.5 7.375 -0.21875 C 6.789062 0.0625 6.125 0.203125 5.375 0.203125 C 4.09375 0.203125 3.125 -0.140625 2.46875 -0.828125 C 1.820312 -1.515625 1.5 -2.503906 1.5 -3.796875 L 1.5 -10.921875 L 4.484375 -10.921875 L 4.484375 -4.546875 C 4.484375 -3.753906 4.625 -3.160156 4.90625 -2.765625 C 5.1875 -2.367188 5.628906 -2.171875 6.234375 -2.171875 C 7.066406 -2.171875 7.671875 -2.445312 8.046875 -3 C 8.421875 -3.5625 8.609375 -4.488281 8.609375 -5.78125 L 8.609375 -10.921875 L 11.578125 -10.921875 L 11.578125 0 Z M 9.296875 0 "/></g></g></g><g fill="#2d78bb" fill-opacity="1"><g transform="translate(156.188233, 263.884495)"><g><path d="M 4.546875 0 L 1.5625 0 L 1.5625 -15.203125 L 4.546875 -15.203125 Z M 4.546875 0 "/></g></g></g><g fill="#2d78bb" fill-opacity="1"><g transform="translate(162.289364, 263.884495)"><g><path d="M 6.15625 -2.171875 C 6.675781 -2.171875 7.300781 -2.285156 8.03125 -2.515625 L 8.03125 -0.296875 C 7.289062 0.0351562 6.378906 0.203125 5.296875 0.203125 C 4.109375 0.203125 3.242188 -0.0976562 2.703125 -0.703125 C 2.160156 -1.304688 1.890625 -2.210938 1.890625 -3.421875 L 1.890625 -8.6875 L 0.453125 -8.6875 L 0.453125 -9.9375 L 2.09375 -10.9375 L 2.953125 -13.25 L 4.859375 -13.25 L 4.859375 -10.921875 L 7.921875 -10.921875 L 7.921875 -8.6875 L 4.859375 -8.6875 L 4.859375 -3.421875 C 4.859375 -2.992188 4.976562 -2.675781 5.21875 -2.46875 C 5.457031 -2.269531 5.769531 -2.171875 6.15625 -2.171875 Z M 6.15625 -2.171875 "/></g></g></g><g fill="#2d78bb" fill-opacity="1"><g transform="translate(170.967613, 263.884495)"><g><path d="M 3.9375 -5.484375 C 3.9375 -4.398438 4.113281 -3.582031 4.46875 -3.03125 C 4.820312 -2.476562 5.398438 -2.203125 6.203125 -2.203125 C 6.992188 -2.203125 7.5625 -2.472656 7.90625 -3.015625 C 8.257812 -3.566406 8.4375 -4.390625 8.4375 -5.484375 C 8.4375 -6.554688 8.257812 -7.363281 7.90625 -7.90625 C 7.5625 -8.445312 6.988281 -8.71875 6.1875 -8.71875 C 5.382812 -8.71875 4.804688 -8.445312 4.453125 -7.90625 C 4.109375 -7.375 3.9375 -6.566406 3.9375 -5.484375 Z M 11.484375 -5.484375 C 11.484375 -3.703125 11.015625 -2.304688 10.078125 -1.296875 C 9.140625 -0.296875 7.832031 0.203125 6.15625 0.203125 C 5.113281 0.203125 4.191406 -0.0234375 3.390625 -0.484375 C 2.585938 -0.953125 1.972656 -1.613281 1.546875 -2.46875 C 1.117188 -3.332031 0.90625 -4.335938 0.90625 -5.484375 C 0.90625 -7.265625 1.367188 -8.648438 2.296875 -9.640625 C 3.222656 -10.628906 4.53125 -11.125 6.21875 -11.125 C 7.269531 -11.125 8.195312 -10.894531 9 -10.4375 C 9.800781 -9.976562 10.414062 -9.320312 10.84375 -8.46875 C 11.269531 -7.625 11.484375 -6.628906 11.484375 -5.484375 Z M 11.484375 -5.484375 "/></g></g></g><g fill="#2d78bb" fill-opacity="1"><g transform="translate(183.345588, 263.884495)"><g><path d="M 7.65625 -11.125 C 8.0625 -11.125 8.394531 -11.09375 8.65625 -11.03125 L 8.4375 -8.25 C 8.195312 -8.3125 7.90625 -8.34375 7.5625 -8.34375 C 6.613281 -8.34375 5.875 -8.097656 5.34375 -7.609375 C 4.8125 -7.117188 4.546875 -6.4375 4.546875 -5.5625 L 4.546875 0 L 1.5625 0 L 1.5625 -10.921875 L 3.8125 -10.921875 L 4.265625 -9.078125 L 4.40625 -9.078125 C 4.738281 -9.691406 5.191406 -10.1875 5.765625 -10.5625 C 6.347656 -10.9375 6.976562 -11.125 7.65625 -11.125 Z M 7.65625 -11.125 "/></g></g></g><g fill="#2d78bb" fill-opacity="1"><g transform="translate(192.424071, 263.884495)"><g><path d="M 1.4375 -13.734375 C 1.4375 -14.710938 1.976562 -15.203125 3.0625 -15.203125 C 4.132812 -15.203125 4.671875 -14.710938 4.671875 -13.734375 C 4.671875 -13.273438 4.535156 -12.914062 4.265625 -12.65625 C 4.003906 -12.40625 3.601562 -12.28125 3.0625 -12.28125 C 1.976562 -12.28125 1.4375 -12.765625 1.4375 -13.734375 Z M 4.546875 0 L 1.5625 0 L 1.5625 -10.921875 L 4.546875 -10.921875 Z M 4.546875 0 "/></g></g></g><g fill="#2d78bb" fill-opacity="1"><g transform="translate(198.525202, 263.884495)"><g><path d="M 8.5 0 L 7.921875 -1.484375 L 7.84375 -1.484375 C 7.34375 -0.847656 6.828125 -0.40625 6.296875 -0.15625 C 5.765625 0.0820312 5.070312 0.203125 4.21875 0.203125 C 3.164062 0.203125 2.335938 -0.0976562 1.734375 -0.703125 C 1.140625 -1.304688 0.84375 -2.160156 0.84375 -3.265625 C 0.84375 -4.421875 1.242188 -5.273438 2.046875 -5.828125 C 2.859375 -6.378906 4.082031 -6.679688 5.71875 -6.734375 L 7.625 -6.796875 L 7.625 -7.28125 C 7.625 -8.382812 7.054688 -8.9375 5.921875 -8.9375 C 5.046875 -8.9375 4.019531 -8.671875 2.84375 -8.140625 L 1.859375 -10.15625 C 3.109375 -10.8125 4.5 -11.140625 6.03125 -11.140625 C 7.5 -11.140625 8.625 -10.820312 9.40625 -10.1875 C 10.1875 -9.550781 10.578125 -8.582031 10.578125 -7.28125 L 10.578125 0 Z M 7.625 -5.0625 L 6.46875 -5.015625 C 5.601562 -4.992188 4.957031 -4.835938 4.53125 -4.546875 C 4.101562 -4.265625 3.890625 -3.832031 3.890625 -3.25 C 3.890625 -2.40625 4.375 -1.984375 5.34375 -1.984375 C 6.03125 -1.984375 6.582031 -2.179688 7 -2.578125 C 7.414062 -2.972656 7.625 -3.5 7.625 -4.15625 Z M 7.625 -5.0625 "/></g></g></g><g fill="#2d78bb" fill-opacity="1"><g transform="translate(95.839158, 282.060977)"><g><path d="M 13.5 0 L 10.484375 0 L 10.484375 -6.15625 L 4.828125 -6.15625 L 4.828125 0 L 1.796875 0 L 1.796875 -14.28125 L 4.828125 -14.28125 L 4.828125 -8.6875 L 10.484375 -8.6875 L 10.484375 -14.28125 L 13.5 -14.28125 Z M 13.5 0 "/></g></g></g><g fill="#2d78bb" fill-opacity="1"><g transform="translate(111.135914, 282.060977)"><g><path d="M 3.9375 -5.484375 C 3.9375 -4.398438 4.113281 -3.582031 4.46875 -3.03125 C 4.820312 -2.476562 5.398438 -2.203125 6.203125 -2.203125 C 6.992188 -2.203125 7.5625 -2.472656 7.90625 -3.015625 C 8.257812 -3.566406 8.4375 -4.390625 8.4375 -5.484375 C 8.4375 -6.554688 8.257812 -7.363281 7.90625 -7.90625 C 7.5625 -8.445312 6.988281 -8.71875 6.1875 -8.71875 C 5.382812 -8.71875 4.804688 -8.445312 4.453125 -7.90625 C 4.109375 -7.375 3.9375 -6.566406 3.9375 -5.484375 Z M 11.484375 -5.484375 C 11.484375 -3.703125 11.015625 -2.304688 10.078125 -1.296875 C 9.140625 -0.296875 7.832031 0.203125 6.15625 0.203125 C 5.113281 0.203125 4.191406 -0.0234375 3.390625 -0.484375 C 2.585938 -0.953125 1.972656 -1.613281 1.546875 -2.46875 C 1.117188 -3.332031 0.90625 -4.335938 0.90625 -5.484375 C 0.90625 -7.265625 1.367188 -8.648438 2.296875 -9.640625 C 3.222656 -10.628906 4.53125 -11.125 6.21875 -11.125 C 7.269531 -11.125 8.195312 -10.894531 9 -10.4375 C 9.800781 -9.976562 10.414062 -9.320312 10.84375 -8.46875 C 11.269531 -7.625 11.484375 -6.628906 11.484375 -5.484375 Z M 11.484375 -5.484375 "/></g></g></g><g fill="#2d78bb" fill-opacity="1"><g transform="translate(123.513888, 282.060977)"><g><path d="M 9.1875 -3.25 C 9.1875 -2.125 8.796875 -1.265625 8.015625 -0.671875 C 7.234375 -0.0859375 6.066406 0.203125 4.515625 0.203125 C 3.722656 0.203125 3.046875 0.144531 2.484375 0.03125 C 1.929688 -0.0703125 1.410156 -0.226562 0.921875 -0.4375 L 0.921875 -2.90625 C 1.472656 -2.644531 2.09375 -2.425781 2.78125 -2.25 C 3.476562 -2.070312 4.09375 -1.984375 4.625 -1.984375 C 5.695312 -1.984375 6.234375 -2.296875 6.234375 -2.921875 C 6.234375 -3.148438 6.160156 -3.335938 6.015625 -3.484375 C 5.878906 -3.640625 5.632812 -3.804688 5.28125 -3.984375 C 4.925781 -4.171875 4.457031 -4.390625 3.875 -4.640625 C 3.039062 -4.992188 2.425781 -5.316406 2.03125 -5.609375 C 1.632812 -5.910156 1.347656 -6.253906 1.171875 -6.640625 C 0.992188 -7.035156 0.90625 -7.515625 0.90625 -8.078125 C 0.90625 -9.046875 1.28125 -9.796875 2.03125 -10.328125 C 2.78125 -10.859375 3.84375 -11.125 5.21875 -11.125 C 6.539062 -11.125 7.820312 -10.835938 9.0625 -10.265625 L 8.171875 -8.109375 C 7.617188 -8.347656 7.101562 -8.539062 6.625 -8.6875 C 6.15625 -8.84375 5.671875 -8.921875 5.171875 -8.921875 C 4.296875 -8.921875 3.859375 -8.679688 3.859375 -8.203125 C 3.859375 -7.929688 4 -7.695312 4.28125 -7.5 C 4.5625 -7.3125 5.179688 -7.023438 6.140625 -6.640625 C 6.992188 -6.296875 7.617188 -5.972656 8.015625 -5.671875 C 8.410156 -5.367188 8.703125 -5.019531 8.890625 -4.625 C 9.085938 -4.238281 9.1875 -3.78125 9.1875 -3.25 Z M 9.1875 -3.25 "/></g></g></g><g fill="#2d78bb" fill-opacity="1"><g transform="translate(133.45141, 282.060977)"><g><path d="M 7.5625 0.203125 C 6.28125 0.203125 5.273438 -0.265625 4.546875 -1.203125 L 4.390625 -1.203125 C 4.492188 -0.285156 4.546875 0.238281 4.546875 0.375 L 4.546875 4.8125 L 1.5625 4.8125 L 1.5625 -10.921875 L 3.984375 -10.921875 L 4.40625 -9.5 L 4.546875 -9.5 C 5.242188 -10.582031 6.273438 -11.125 7.640625 -11.125 C 8.929688 -11.125 9.941406 -10.625 10.671875 -9.625 C 11.398438 -8.632812 11.765625 -7.253906 11.765625 -5.484375 C 11.765625 -4.316406 11.59375 -3.300781 11.25 -2.4375 C 10.90625 -1.582031 10.414062 -0.925781 9.78125 -0.46875 C 9.15625 -0.0195312 8.414062 0.203125 7.5625 0.203125 Z M 6.6875 -8.734375 C 5.945312 -8.734375 5.40625 -8.507812 5.0625 -8.0625 C 4.726562 -7.613281 4.554688 -6.867188 4.546875 -5.828125 L 4.546875 -5.5 C 4.546875 -4.320312 4.71875 -3.476562 5.0625 -2.96875 C 5.414062 -2.46875 5.96875 -2.21875 6.71875 -2.21875 C 8.050781 -2.21875 8.71875 -3.316406 8.71875 -5.515625 C 8.71875 -6.585938 8.550781 -7.390625 8.21875 -7.921875 C 7.894531 -8.460938 7.382812 -8.734375 6.6875 -8.734375 Z M 6.6875 -8.734375 "/></g></g></g><g fill="#2d78bb" fill-opacity="1"><g transform="translate(146.102716, 282.060977)"><g><path d="M 1.4375 -13.734375 C 1.4375 -14.710938 1.976562 -15.203125 3.0625 -15.203125 C 4.132812 -15.203125 4.671875 -14.710938 4.671875 -13.734375 C 4.671875 -13.273438 4.535156 -12.914062 4.265625 -12.65625 C 4.003906 -12.40625 3.601562 -12.28125 3.0625 -12.28125 C 1.976562 -12.28125 1.4375 -12.765625 1.4375 -13.734375 Z M 4.546875 0 L 1.5625 0 L 1.5625 -10.921875 L 4.546875 -10.921875 Z M 4.546875 0 "/></g></g></g><g fill="#2d78bb" fill-opacity="1"><g transform="translate(152.203847, 282.060977)"><g><path d="M 6.15625 -2.171875 C 6.675781 -2.171875 7.300781 -2.285156 8.03125 -2.515625 L 8.03125 -0.296875 C 7.289062 0.0351562 6.378906 0.203125 5.296875 0.203125 C 4.109375 0.203125 3.242188 -0.0976562 2.703125 -0.703125 C 2.160156 -1.304688 1.890625 -2.210938 1.890625 -3.421875 L 1.890625 -8.6875 L 0.453125 -8.6875 L 0.453125 -9.9375 L 2.09375 -10.9375 L 2.953125 -13.25 L 4.859375 -13.25 L 4.859375 -10.921875 L 7.921875 -10.921875 L 7.921875 -8.6875 L 4.859375 -8.6875 L 4.859375 -3.421875 C 4.859375 -2.992188 4.976562 -2.675781 5.21875 -2.46875 C 5.457031 -2.269531 5.769531 -2.171875 6.15625 -2.171875 Z M 6.15625 -2.171875 "/></g></g></g><g fill="#2d78bb" fill-opacity="1"><g transform="translate(160.882095, 282.060977)"><g><path d="M 8.5 0 L 7.921875 -1.484375 L 7.84375 -1.484375 C 7.34375 -0.847656 6.828125 -0.40625 6.296875 -0.15625 C 5.765625 0.0820312 5.070312 0.203125 4.21875 0.203125 C 3.164062 0.203125 2.335938 -0.0976562 1.734375 -0.703125 C 1.140625 -1.304688 0.84375 -2.160156 0.84375 -3.265625 C 0.84375 -4.421875 1.242188 -5.273438 2.046875 -5.828125 C 2.859375 -6.378906 4.082031 -6.679688 5.71875 -6.734375 L 7.625 -6.796875 L 7.625 -7.28125 C 7.625 -8.382812 7.054688 -8.9375 5.921875 -8.9375 C 5.046875 -8.9375 4.019531 -8.671875 2.84375 -8.140625 L 1.859375 -10.15625 C 3.109375 -10.8125 4.5 -11.140625 6.03125 -11.140625 C 7.5 -11.140625 8.625 -10.820312 9.40625 -10.1875 C 10.1875 -9.550781 10.578125 -8.582031 10.578125 -7.28125 L 10.578125 0 Z M 7.625 -5.0625 L 6.46875 -5.015625 C 5.601562 -4.992188 4.957031 -4.835938 4.53125 -4.546875 C 4.101562 -4.265625 3.890625 -3.832031 3.890625 -3.25 C 3.890625 -2.40625 4.375 -1.984375 5.34375 -1.984375 C 6.03125 -1.984375 6.582031 -2.179688 7 -2.578125 C 7.414062 -2.972656 7.625 -3.5 7.625 -4.15625 Z M 7.625 -5.0625 "/></g></g></g><g fill="#2d78bb" fill-opacity="1"><g transform="translate(172.957454, 282.060977)"><g><path d="M 4.546875 0 L 1.5625 0 L 1.5625 -15.203125 L 4.546875 -15.203125 Z M 4.546875 0 "/></g></g></g><g fill="#2d78bb" fill-opacity="1"><g transform="translate(179.058585, 282.060977)"><g><path d="M 8.5 0 L 7.921875 -1.484375 L 7.84375 -1.484375 C 7.34375 -0.847656 6.828125 -0.40625 6.296875 -0.15625 C 5.765625 0.0820312 5.070312 0.203125 4.21875 0.203125 C 3.164062 0.203125 2.335938 -0.0976562 1.734375 -0.703125 C 1.140625 -1.304688 0.84375 -2.160156 0.84375 -3.265625 C 0.84375 -4.421875 1.242188 -5.273438 2.046875 -5.828125 C 2.859375 -6.378906 4.082031 -6.679688 5.71875 -6.734375 L 7.625 -6.796875 L 7.625 -7.28125 C 7.625 -8.382812 7.054688 -8.9375 5.921875 -8.9375 C 5.046875 -8.9375 4.019531 -8.671875 2.84375 -8.140625 L 1.859375 -10.15625 C 3.109375 -10.8125 4.5 -11.140625 6.03125 -11.140625 C 7.5 -11.140625 8.625 -10.820312 9.40625 -10.1875 C 10.1875 -9.550781 10.578125 -8.582031 10.578125 -7.28125 L 10.578125 0 Z M 7.625 -5.0625 L 6.46875 -5.015625 C 5.601562 -4.992188 4.957031 -4.835938 4.53125 -4.546875 C 4.101562 -4.265625 3.890625 -3.832031 3.890625 -3.25 C 3.890625 -2.40625 4.375 -1.984375 5.34375 -1.984375 C 6.03125 -1.984375 6.582031 -2.179688 7 -2.578125 C 7.414062 -2.972656 7.625 -3.5 7.625 -4.15625 Z M 7.625 -5.0625 "/></g></g></g><g fill="#2d78bb" fill-opacity="1"><g transform="translate(191.133943, 282.060977)"><g><path d="M 7.65625 -11.125 C 8.0625 -11.125 8.394531 -11.09375 8.65625 -11.03125 L 8.4375 -8.25 C 8.195312 -8.3125 7.90625 -8.34375 7.5625 -8.34375 C 6.613281 -8.34375 5.875 -8.097656 5.34375 -7.609375 C 4.8125 -7.117188 4.546875 -6.4375 4.546875 -5.5625 L 4.546875 0 L 1.5625 0 L 1.5625 -10.921875 L 3.8125 -10.921875 L 4.265625 -9.078125 L 4.40625 -9.078125 C 4.738281 -9.691406 5.191406 -10.1875 5.765625 -10.5625 C 6.347656 -10.9375 6.976562 -11.125 7.65625 -11.125 Z M 7.65625 -11.125 "/></g></g></g><g fill="#2d78bb" fill-opacity="1"><g transform="translate(200.212426, 282.060977)"><g><path d="M 6.078125 -9 C 5.453125 -9 4.957031 -8.796875 4.59375 -8.390625 C 4.238281 -7.992188 4.035156 -7.429688 3.984375 -6.703125 L 8.171875 -6.703125 C 8.148438 -7.429688 7.953125 -7.992188 7.578125 -8.390625 C 7.210938 -8.796875 6.710938 -9 6.078125 -9 Z M 6.5 0.203125 C 4.75 0.203125 3.378906 -0.28125 2.390625 -1.25 C 1.398438 -2.226562 0.90625 -3.601562 0.90625 -5.375 C 0.90625 -7.207031 1.359375 -8.625 2.265625 -9.625 C 3.179688 -10.625 4.445312 -11.125 6.0625 -11.125 C 7.601562 -11.125 8.800781 -10.679688 9.65625 -9.796875 C 10.519531 -8.921875 10.953125 -7.707031 10.953125 -6.15625 L 10.953125 -4.71875 L 3.921875 -4.71875 C 3.953125 -3.875 4.203125 -3.210938 4.671875 -2.734375 C 5.140625 -2.253906 5.796875 -2.015625 6.640625 -2.015625 C 7.296875 -2.015625 7.914062 -2.082031 8.5 -2.21875 C 9.09375 -2.363281 9.707031 -2.582031 10.34375 -2.875 L 10.34375 -0.578125 C 9.820312 -0.316406 9.265625 -0.125 8.671875 0 C 8.078125 0.132812 7.351562 0.203125 6.5 0.203125 Z M 6.5 0.203125 "/></g></g></g><g fill="#2d78bb" fill-opacity="1"><g transform="translate(212.024216, 282.060977)"><g><path d="M 9.1875 -3.25 C 9.1875 -2.125 8.796875 -1.265625 8.015625 -0.671875 C 7.234375 -0.0859375 6.066406 0.203125 4.515625 0.203125 C 3.722656 0.203125 3.046875 0.144531 2.484375 0.03125 C 1.929688 -0.0703125 1.410156 -0.226562 0.921875 -0.4375 L 0.921875 -2.90625 C 1.472656 -2.644531 2.09375 -2.425781 2.78125 -2.25 C 3.476562 -2.070312 4.09375 -1.984375 4.625 -1.984375 C 5.695312 -1.984375 6.234375 -2.296875 6.234375 -2.921875 C 6.234375 -3.148438 6.160156 -3.335938 6.015625 -3.484375 C 5.878906 -3.640625 5.632812 -3.804688 5.28125 -3.984375 C 4.925781 -4.171875 4.457031 -4.390625 3.875 -4.640625 C 3.039062 -4.992188 2.425781 -5.316406 2.03125 -5.609375 C 1.632812 -5.910156 1.347656 -6.253906 1.171875 -6.640625 C 0.992188 -7.035156 0.90625 -7.515625 0.90625 -8.078125 C 0.90625 -9.046875 1.28125 -9.796875 2.03125 -10.328125 C 2.78125 -10.859375 3.84375 -11.125 5.21875 -11.125 C 6.539062 -11.125 7.820312 -10.835938 9.0625 -10.265625 L 8.171875 -8.109375 C 7.617188 -8.347656 7.101562 -8.539062 6.625 -8.6875 C 6.15625 -8.84375 5.671875 -8.921875 5.171875 -8.921875 C 4.296875 -8.921875 3.859375 -8.679688 3.859375 -8.203125 C 3.859375 -7.929688 4 -7.695312 4.28125 -7.5 C 4.5625 -7.3125 5.179688 -7.023438 6.140625 -6.640625 C 6.992188 -6.296875 7.617188 -5.972656 8.015625 -5.671875 C 8.410156 -5.367188 8.703125 -5.019531 8.890625 -4.625 C 9.085938 -4.238281 9.1875 -3.78125 9.1875 -3.25 Z M 9.1875 -3.25 "/></g></g></g></svg>